<mxfile host="app.diagrams.net" modified="2020-04-16T09:44:25.295Z" agent="5.0 (Windows NT 6.1; Win64; x64) AppleWebKit/537.36 (KHTML, like Gecko) Chrome/80.0.3987.163 Safari/537.36" etag="P1pDbtmS4lUVanrDP5Ah" version="12.9.13" type="github">
  <diagram id="FYiGbBCztX7PDX6f9yUh" name="Page-1">
    <mxGraphModel dx="1422" dy="1962" grid="1" gridSize="10" guides="1" tooltips="1" connect="1" arrows="1" fold="1" page="1" pageScale="1" pageWidth="1920" pageHeight="1200" math="0" shadow="0">
      <root>
        <mxCell id="0" />
        <mxCell id="1" parent="0" />
        <mxCell id="Yw4l-M5PoHRuP-3W5IaQ-121" value="" style="edgeStyle=orthogonalEdgeStyle;rounded=0;orthogonalLoop=1;jettySize=auto;html=1;align=center;" parent="1" source="Yw4l-M5PoHRuP-3W5IaQ-118" target="Yw4l-M5PoHRuP-3W5IaQ-120" edge="1">
          <mxGeometry relative="1" as="geometry" />
        </mxCell>
        <mxCell id="Yw4l-M5PoHRuP-3W5IaQ-123" value="" style="edgeStyle=orthogonalEdgeStyle;rounded=0;orthogonalLoop=1;jettySize=auto;html=1;align=center;" parent="1" source="Yw4l-M5PoHRuP-3W5IaQ-118" target="Yw4l-M5PoHRuP-3W5IaQ-122" edge="1">
          <mxGeometry relative="1" as="geometry" />
        </mxCell>
        <mxCell id="Yw4l-M5PoHRuP-3W5IaQ-148" value="" style="edgeStyle=orthogonalEdgeStyle;rounded=0;orthogonalLoop=1;jettySize=auto;html=1;align=center;" parent="1" source="Yw4l-M5PoHRuP-3W5IaQ-118" target="Yw4l-M5PoHRuP-3W5IaQ-147" edge="1">
          <mxGeometry relative="1" as="geometry" />
        </mxCell>
        <mxCell id="Yw4l-M5PoHRuP-3W5IaQ-118" value="13600000001" style="shape=umlActor;verticalLabelPosition=bottom;labelBackgroundColor=#ffffff;verticalAlign=top;html=1;outlineConnect=0;align=center;" parent="1" vertex="1">
          <mxGeometry x="945" y="40" width="30" height="60" as="geometry" />
        </mxCell>
        <mxCell id="Yw4l-M5PoHRuP-3W5IaQ-304" value="" style="edgeStyle=orthogonalEdgeStyle;rounded=0;orthogonalLoop=1;jettySize=auto;html=1;align=center;" parent="1" source="Yw4l-M5PoHRuP-3W5IaQ-147" target="Yw4l-M5PoHRuP-3W5IaQ-303" edge="1">
          <mxGeometry relative="1" as="geometry" />
        </mxCell>
        <mxCell id="Yw4l-M5PoHRuP-3W5IaQ-306" value="" style="edgeStyle=orthogonalEdgeStyle;rounded=0;orthogonalLoop=1;jettySize=auto;html=1;align=center;" parent="1" source="Yw4l-M5PoHRuP-3W5IaQ-147" target="Yw4l-M5PoHRuP-3W5IaQ-305" edge="1">
          <mxGeometry relative="1" as="geometry" />
        </mxCell>
        <mxCell id="Yw4l-M5PoHRuP-3W5IaQ-147" value="13600000011" style="shape=umlActor;verticalLabelPosition=bottom;labelBackgroundColor=#ffffff;verticalAlign=top;html=1;outlineConnect=0;align=center;" parent="1" vertex="1">
          <mxGeometry x="1205.5" y="180" width="30" height="60" as="geometry" />
        </mxCell>
        <mxCell id="Yw4l-M5PoHRuP-3W5IaQ-305" value="13600000006" style="shape=umlActor;verticalLabelPosition=bottom;labelBackgroundColor=#ffffff;verticalAlign=top;html=1;outlineConnect=0;align=center;" parent="1" vertex="1">
          <mxGeometry x="1310" y="440" width="30" height="60" as="geometry" />
        </mxCell>
        <mxCell id="Yw4l-M5PoHRuP-3W5IaQ-303" value="13600000005" style="shape=umlActor;verticalLabelPosition=bottom;labelBackgroundColor=#ffffff;verticalAlign=top;html=1;outlineConnect=0;align=center;" parent="1" vertex="1">
          <mxGeometry x="1108" y="440" width="30" height="60" as="geometry" />
        </mxCell>
        <mxCell id="Yw4l-M5PoHRuP-3W5IaQ-130" value="13600000007" style="shape=umlActor;verticalLabelPosition=bottom;labelBackgroundColor=#ffffff;verticalAlign=top;html=1;outlineConnect=0;align=center;" parent="1" vertex="1">
          <mxGeometry x="945" y="440" width="30" height="60" as="geometry" />
        </mxCell>
        <mxCell id="Yw4l-M5PoHRuP-3W5IaQ-291" value="" style="edgeStyle=orthogonalEdgeStyle;rounded=0;orthogonalLoop=1;jettySize=auto;html=1;align=center;" parent="1" source="Yw4l-M5PoHRuP-3W5IaQ-122" target="Yw4l-M5PoHRuP-3W5IaQ-130" edge="1">
          <mxGeometry relative="1" as="geometry" />
        </mxCell>
        <mxCell id="Yw4l-M5PoHRuP-3W5IaQ-122" value="13600000003" style="shape=umlActor;verticalLabelPosition=bottom;labelBackgroundColor=#ffffff;verticalAlign=top;html=1;outlineConnect=0;align=center;" parent="1" vertex="1">
          <mxGeometry x="945" y="210" width="30" height="60" as="geometry" />
        </mxCell>
        <mxCell id="Yw4l-M5PoHRuP-3W5IaQ-277" value="" style="edgeStyle=orthogonalEdgeStyle;rounded=0;orthogonalLoop=1;jettySize=auto;html=1;align=center;" parent="1" source="Yw4l-M5PoHRuP-3W5IaQ-120" target="Yw4l-M5PoHRuP-3W5IaQ-276" edge="1">
          <mxGeometry relative="1" as="geometry" />
        </mxCell>
        <mxCell id="Yw4l-M5PoHRuP-3W5IaQ-282" value="" style="edgeStyle=orthogonalEdgeStyle;rounded=0;orthogonalLoop=1;jettySize=auto;html=1;align=center;" parent="1" source="Yw4l-M5PoHRuP-3W5IaQ-120" target="Yw4l-M5PoHRuP-3W5IaQ-281" edge="1">
          <mxGeometry relative="1" as="geometry" />
        </mxCell>
        <mxCell id="Yw4l-M5PoHRuP-3W5IaQ-286" value="" style="edgeStyle=orthogonalEdgeStyle;rounded=0;orthogonalLoop=1;jettySize=auto;html=1;align=center;" parent="1" source="Yw4l-M5PoHRuP-3W5IaQ-120" target="Yw4l-M5PoHRuP-3W5IaQ-285" edge="1">
          <mxGeometry relative="1" as="geometry" />
        </mxCell>
        <mxCell id="Yw4l-M5PoHRuP-3W5IaQ-120" value="13600000002" style="shape=umlActor;verticalLabelPosition=bottom;labelBackgroundColor=#ffffff;verticalAlign=top;html=1;outlineConnect=0;align=center;" parent="1" vertex="1">
          <mxGeometry x="640.5" y="210" width="30" height="60" as="geometry" />
        </mxCell>
        <mxCell id="Yw4l-M5PoHRuP-3W5IaQ-285" value="13600000009" style="shape=umlActor;verticalLabelPosition=bottom;labelBackgroundColor=#ffffff;verticalAlign=top;html=1;outlineConnect=0;align=center;" parent="1" vertex="1">
          <mxGeometry x="640.5" y="440" width="30" height="60" as="geometry" />
        </mxCell>
        <mxCell id="Yw4l-M5PoHRuP-3W5IaQ-299" value="" style="edgeStyle=orthogonalEdgeStyle;rounded=0;orthogonalLoop=1;jettySize=auto;html=1;align=center;" parent="1" source="Yw4l-M5PoHRuP-3W5IaQ-289" target="Yw4l-M5PoHRuP-3W5IaQ-298" edge="1">
          <mxGeometry relative="1" as="geometry" />
        </mxCell>
        <mxCell id="Yw4l-M5PoHRuP-3W5IaQ-281" value="13600000008" style="shape=umlActor;verticalLabelPosition=bottom;labelBackgroundColor=#ffffff;verticalAlign=top;html=1;outlineConnect=0;align=center;" parent="1" vertex="1">
          <mxGeometry x="510.5" y="440" width="30" height="60" as="geometry" />
        </mxCell>
        <mxCell id="Yw4l-M5PoHRuP-3W5IaQ-298" value="13600000004" style="shape=umlActor;verticalLabelPosition=bottom;labelBackgroundColor=#ffffff;verticalAlign=top;html=1;outlineConnect=0;align=center;" parent="1" vertex="1">
          <mxGeometry x="511" y="660" width="30" height="60" as="geometry" />
        </mxCell>
        <mxCell id="Yw4l-M5PoHRuP-3W5IaQ-276" value="13600000010" style="shape=umlActor;verticalLabelPosition=bottom;labelBackgroundColor=#ffffff;verticalAlign=top;html=1;outlineConnect=0;align=center;" parent="1" vertex="1">
          <mxGeometry x="760" y="440" width="30" height="60" as="geometry" />
        </mxCell>
        <mxCell id="Yw4l-M5PoHRuP-3W5IaQ-153" value="&lt;font style=&quot;font-size: 24px&quot; color=&quot;#ffffff&quot;&gt;会员&lt;/font&gt;" style="text;html=1;strokeColor=none;fillColor=#FF6666;align=center;verticalAlign=middle;whiteSpace=wrap;rounded=0;" parent="1" vertex="1">
          <mxGeometry x="625.5" y="300" width="60" height="30" as="geometry" />
        </mxCell>
        <mxCell id="Yw4l-M5PoHRuP-3W5IaQ-154" value="&lt;font style=&quot;font-size: 24px&quot; color=&quot;#ffffff&quot;&gt;会员&lt;/font&gt;" style="text;html=1;strokeColor=none;fillColor=#FF6666;align=center;verticalAlign=middle;whiteSpace=wrap;rounded=0;" parent="1" vertex="1">
          <mxGeometry x="930" y="120" width="60" height="30" as="geometry" />
        </mxCell>
        <mxCell id="Yw4l-M5PoHRuP-3W5IaQ-157" value="&lt;font style=&quot;font-size: 24px&quot; color=&quot;#ffffff&quot;&gt;会员&lt;/font&gt;" style="text;html=1;strokeColor=none;fillColor=#FF6666;align=center;verticalAlign=middle;whiteSpace=wrap;rounded=0;" parent="1" vertex="1">
          <mxGeometry x="930" y="290" width="60" height="30" as="geometry" />
        </mxCell>
        <mxCell id="Yw4l-M5PoHRuP-3W5IaQ-159" value="&lt;font style=&quot;font-size: 24px&quot; color=&quot;#ffffff&quot;&gt;会员&lt;/font&gt;" style="text;html=1;strokeColor=none;fillColor=#FF6666;align=center;verticalAlign=middle;whiteSpace=wrap;rounded=0;" parent="1" vertex="1">
          <mxGeometry x="1093" y="520" width="60" height="30" as="geometry" />
        </mxCell>
        <mxCell id="Yw4l-M5PoHRuP-3W5IaQ-160" value="&lt;font style=&quot;font-size: 24px&quot; color=&quot;#ffffff&quot;&gt;会员&lt;/font&gt;" style="text;html=1;strokeColor=none;fillColor=#FF6666;align=center;verticalAlign=middle;whiteSpace=wrap;rounded=0;" parent="1" vertex="1">
          <mxGeometry x="1295" y="520" width="60" height="30" as="geometry" />
        </mxCell>
        <mxCell id="Yw4l-M5PoHRuP-3W5IaQ-161" value="&lt;font style=&quot;font-size: 24px&quot; color=&quot;#ffffff&quot;&gt;会员&lt;/font&gt;" style="text;html=1;strokeColor=none;fillColor=#FF6666;align=center;verticalAlign=middle;whiteSpace=wrap;rounded=0;" parent="1" vertex="1">
          <mxGeometry x="930" y="520" width="60" height="30" as="geometry" />
        </mxCell>
        <mxCell id="Yw4l-M5PoHRuP-3W5IaQ-164" value="&lt;font style=&quot;font-size: 24px&quot; color=&quot;#ffffff&quot;&gt;会员&lt;/font&gt;" style="text;html=1;strokeColor=none;fillColor=#FF6666;align=center;verticalAlign=middle;whiteSpace=wrap;rounded=0;" parent="1" vertex="1">
          <mxGeometry x="745" y="520" width="60" height="30" as="geometry" />
        </mxCell>
        <mxCell id="Yw4l-M5PoHRuP-3W5IaQ-165" value="&lt;font style=&quot;font-size: 24px&quot; color=&quot;#ffffff&quot;&gt;会员&lt;/font&gt;" style="text;html=1;strokeColor=none;fillColor=#FF6666;align=center;verticalAlign=middle;whiteSpace=wrap;rounded=0;" parent="1" vertex="1">
          <mxGeometry x="1190.5" y="260" width="60" height="30" as="geometry" />
        </mxCell>
        <mxCell id="Yw4l-M5PoHRuP-3W5IaQ-166" value="&lt;font style=&quot;font-size: 22px&quot;&gt;13600000001&lt;br&gt;金牌&lt;br&gt;一级分成比例 0.5元&lt;/font&gt;" style="rounded=1;whiteSpace=wrap;html=1;fillColor=#FFFFFF;align=center;" parent="1" vertex="1">
          <mxGeometry x="1260.5" y="60" width="275" height="100" as="geometry" />
        </mxCell>
        <mxCell id="Yw4l-M5PoHRuP-3W5IaQ-273" value="&lt;span style=&quot;font-size: 24px&quot;&gt;&lt;font color=&quot;#330000&quot;&gt;购买者&lt;/font&gt;&lt;/span&gt;" style="text;html=1;strokeColor=#9673a6;fillColor=#e1d5e7;align=center;verticalAlign=middle;whiteSpace=wrap;rounded=0;" parent="1" vertex="1">
          <mxGeometry x="1171.5" y="300" width="109" height="30" as="geometry" />
        </mxCell>
        <mxCell id="Yw4l-M5PoHRuP-3W5IaQ-288" value="&lt;font style=&quot;font-size: 24px&quot; color=&quot;#ffffff&quot;&gt;会员&lt;/font&gt;" style="text;html=1;strokeColor=none;fillColor=#FF6666;align=center;verticalAlign=middle;whiteSpace=wrap;rounded=0;" parent="1" vertex="1">
          <mxGeometry x="625.5" y="520" width="60" height="30" as="geometry" />
        </mxCell>
        <mxCell id="Yw4l-M5PoHRuP-3W5IaQ-302" value="&lt;font style=&quot;font-size: 24px&quot; color=&quot;#ffffff&quot;&gt;会员&lt;/font&gt;" style="text;html=1;strokeColor=none;fillColor=#FF6666;align=center;verticalAlign=middle;whiteSpace=wrap;rounded=0;" parent="1" vertex="1">
          <mxGeometry x="495.5" y="750" width="60" height="30" as="geometry" />
        </mxCell>
        <mxCell id="Yw4l-M5PoHRuP-3W5IaQ-289" value="&lt;font style=&quot;font-size: 24px&quot; color=&quot;#ffffff&quot;&gt;会员&lt;/font&gt;" style="text;html=1;strokeColor=none;fillColor=#FF6666;align=center;verticalAlign=middle;whiteSpace=wrap;rounded=0;" parent="1" vertex="1">
          <mxGeometry x="496" y="520" width="60" height="30" as="geometry" />
        </mxCell>
        <mxCell id="Yw4l-M5PoHRuP-3W5IaQ-311" value="" style="edgeStyle=orthogonalEdgeStyle;rounded=0;orthogonalLoop=1;jettySize=auto;html=1;align=center;" parent="1" source="Yw4l-M5PoHRuP-3W5IaQ-281" target="Yw4l-M5PoHRuP-3W5IaQ-289" edge="1">
          <mxGeometry relative="1" as="geometry">
            <mxPoint x="525.5" y="500" as="sourcePoint" />
            <mxPoint x="525.5" y="660" as="targetPoint" />
          </mxGeometry>
        </mxCell>
        <mxCell id="Yw4l-M5PoHRuP-3W5IaQ-313" value="" style="edgeStyle=orthogonalEdgeStyle;rounded=0;orthogonalLoop=1;jettySize=auto;html=1;align=center;" parent="1" source="Yw4l-M5PoHRuP-3W5IaQ-316" target="Yw4l-M5PoHRuP-3W5IaQ-328" edge="1">
          <mxGeometry relative="1" as="geometry" />
        </mxCell>
        <mxCell id="Yw4l-M5PoHRuP-3W5IaQ-314" value="" style="edgeStyle=orthogonalEdgeStyle;rounded=0;orthogonalLoop=1;jettySize=auto;html=1;align=center;" parent="1" source="Yw4l-M5PoHRuP-3W5IaQ-316" target="Yw4l-M5PoHRuP-3W5IaQ-324" edge="1">
          <mxGeometry relative="1" as="geometry" />
        </mxCell>
        <mxCell id="Yw4l-M5PoHRuP-3W5IaQ-315" value="" style="edgeStyle=orthogonalEdgeStyle;rounded=0;orthogonalLoop=1;jettySize=auto;html=1;align=center;" parent="1" source="Yw4l-M5PoHRuP-3W5IaQ-316" target="Yw4l-M5PoHRuP-3W5IaQ-319" edge="1">
          <mxGeometry relative="1" as="geometry" />
        </mxCell>
        <mxCell id="Yw4l-M5PoHRuP-3W5IaQ-316" value="13600000001" style="shape=umlActor;verticalLabelPosition=bottom;labelBackgroundColor=#ffffff;verticalAlign=top;html=1;outlineConnect=0;align=center;" parent="1" vertex="1">
          <mxGeometry x="945.5" y="880" width="30" height="60" as="geometry" />
        </mxCell>
        <mxCell id="Yw4l-M5PoHRuP-3W5IaQ-317" value="" style="edgeStyle=orthogonalEdgeStyle;rounded=0;orthogonalLoop=1;jettySize=auto;html=1;align=center;" parent="1" source="Yw4l-M5PoHRuP-3W5IaQ-319" target="Yw4l-M5PoHRuP-3W5IaQ-321" edge="1">
          <mxGeometry relative="1" as="geometry" />
        </mxCell>
        <mxCell id="Yw4l-M5PoHRuP-3W5IaQ-318" value="" style="edgeStyle=orthogonalEdgeStyle;rounded=0;orthogonalLoop=1;jettySize=auto;html=1;align=center;" parent="1" source="Yw4l-M5PoHRuP-3W5IaQ-319" target="Yw4l-M5PoHRuP-3W5IaQ-320" edge="1">
          <mxGeometry relative="1" as="geometry" />
        </mxCell>
        <mxCell id="Yw4l-M5PoHRuP-3W5IaQ-319" value="13600000011" style="shape=umlActor;verticalLabelPosition=bottom;labelBackgroundColor=#ffffff;verticalAlign=top;html=1;outlineConnect=0;align=center;" parent="1" vertex="1">
          <mxGeometry x="1206" y="1050" width="30" height="60" as="geometry" />
        </mxCell>
        <mxCell id="Yw4l-M5PoHRuP-3W5IaQ-320" value="13600000006" style="shape=umlActor;verticalLabelPosition=bottom;labelBackgroundColor=#ffffff;verticalAlign=top;html=1;outlineConnect=0;align=center;" parent="1" vertex="1">
          <mxGeometry x="1310.5" y="1280" width="30" height="60" as="geometry" />
        </mxCell>
        <mxCell id="Yw4l-M5PoHRuP-3W5IaQ-321" value="13600000005" style="shape=umlActor;verticalLabelPosition=bottom;labelBackgroundColor=#ffffff;verticalAlign=top;html=1;outlineConnect=0;align=center;" parent="1" vertex="1">
          <mxGeometry x="1108.5" y="1280" width="30" height="60" as="geometry" />
        </mxCell>
        <mxCell id="Yw4l-M5PoHRuP-3W5IaQ-322" value="13600000007" style="shape=umlActor;verticalLabelPosition=bottom;labelBackgroundColor=#ffffff;verticalAlign=top;html=1;outlineConnect=0;align=center;" parent="1" vertex="1">
          <mxGeometry x="945.5" y="1280" width="30" height="60" as="geometry" />
        </mxCell>
        <mxCell id="Yw4l-M5PoHRuP-3W5IaQ-323" value="" style="edgeStyle=orthogonalEdgeStyle;rounded=0;orthogonalLoop=1;jettySize=auto;html=1;align=center;" parent="1" source="Yw4l-M5PoHRuP-3W5IaQ-324" target="Yw4l-M5PoHRuP-3W5IaQ-322" edge="1">
          <mxGeometry relative="1" as="geometry" />
        </mxCell>
        <mxCell id="Yw4l-M5PoHRuP-3W5IaQ-324" value="13600000003" style="shape=umlActor;verticalLabelPosition=bottom;labelBackgroundColor=#ffffff;verticalAlign=top;html=1;outlineConnect=0;align=center;" parent="1" vertex="1">
          <mxGeometry x="945.5" y="1050" width="30" height="60" as="geometry" />
        </mxCell>
        <mxCell id="Yw4l-M5PoHRuP-3W5IaQ-325" value="" style="edgeStyle=orthogonalEdgeStyle;rounded=0;orthogonalLoop=1;jettySize=auto;html=1;align=center;" parent="1" source="Yw4l-M5PoHRuP-3W5IaQ-328" target="Yw4l-M5PoHRuP-3W5IaQ-333" edge="1">
          <mxGeometry relative="1" as="geometry" />
        </mxCell>
        <mxCell id="Yw4l-M5PoHRuP-3W5IaQ-326" value="" style="edgeStyle=orthogonalEdgeStyle;rounded=0;orthogonalLoop=1;jettySize=auto;html=1;align=center;" parent="1" source="Yw4l-M5PoHRuP-3W5IaQ-328" target="Yw4l-M5PoHRuP-3W5IaQ-331" edge="1">
          <mxGeometry relative="1" as="geometry" />
        </mxCell>
        <mxCell id="Yw4l-M5PoHRuP-3W5IaQ-327" value="" style="edgeStyle=orthogonalEdgeStyle;rounded=0;orthogonalLoop=1;jettySize=auto;html=1;align=center;" parent="1" source="Yw4l-M5PoHRuP-3W5IaQ-328" target="Yw4l-M5PoHRuP-3W5IaQ-329" edge="1">
          <mxGeometry relative="1" as="geometry" />
        </mxCell>
        <mxCell id="Yw4l-M5PoHRuP-3W5IaQ-328" value="13600000002" style="shape=umlActor;verticalLabelPosition=bottom;labelBackgroundColor=#ffffff;verticalAlign=top;html=1;outlineConnect=0;align=center;" parent="1" vertex="1">
          <mxGeometry x="641" y="1050" width="30" height="60" as="geometry" />
        </mxCell>
        <mxCell id="Yw4l-M5PoHRuP-3W5IaQ-329" value="13600000009" style="shape=umlActor;verticalLabelPosition=bottom;labelBackgroundColor=#ffffff;verticalAlign=top;html=1;outlineConnect=0;align=center;" parent="1" vertex="1">
          <mxGeometry x="641" y="1280" width="30" height="60" as="geometry" />
        </mxCell>
        <mxCell id="Yw4l-M5PoHRuP-3W5IaQ-330" value="" style="edgeStyle=orthogonalEdgeStyle;rounded=0;orthogonalLoop=1;jettySize=auto;html=1;align=center;" parent="1" source="Yw4l-M5PoHRuP-3W5IaQ-346" target="Yw4l-M5PoHRuP-3W5IaQ-332" edge="1">
          <mxGeometry relative="1" as="geometry" />
        </mxCell>
        <mxCell id="Yw4l-M5PoHRuP-3W5IaQ-331" value="13600000008" style="shape=umlActor;verticalLabelPosition=bottom;labelBackgroundColor=#ffffff;verticalAlign=top;html=1;outlineConnect=0;align=center;" parent="1" vertex="1">
          <mxGeometry x="511" y="1280" width="30" height="60" as="geometry" />
        </mxCell>
        <mxCell id="Yw4l-M5PoHRuP-3W5IaQ-332" value="13600000004" style="shape=umlActor;verticalLabelPosition=bottom;labelBackgroundColor=#ffffff;verticalAlign=top;html=1;outlineConnect=0;align=center;" parent="1" vertex="1">
          <mxGeometry x="511.5" y="1500" width="30" height="60" as="geometry" />
        </mxCell>
        <mxCell id="Yw4l-M5PoHRuP-3W5IaQ-333" value="13600000010" style="shape=umlActor;verticalLabelPosition=bottom;labelBackgroundColor=#ffffff;verticalAlign=top;html=1;outlineConnect=0;align=center;" parent="1" vertex="1">
          <mxGeometry x="760.5" y="1280" width="30" height="60" as="geometry" />
        </mxCell>
        <mxCell id="Yw4l-M5PoHRuP-3W5IaQ-334" value="&lt;font style=&quot;font-size: 24px&quot; color=&quot;#ffffff&quot;&gt;会员&lt;/font&gt;" style="text;html=1;strokeColor=none;fillColor=#FF6666;align=center;verticalAlign=middle;whiteSpace=wrap;rounded=0;" parent="1" vertex="1">
          <mxGeometry x="626" y="1140" width="60" height="30" as="geometry" />
        </mxCell>
        <mxCell id="Yw4l-M5PoHRuP-3W5IaQ-335" value="&lt;font color=&quot;#ffffff&quot;&gt;&lt;span style=&quot;font-size: 24px&quot;&gt;专卖店&lt;/span&gt;&lt;/font&gt;" style="text;html=1;strokeColor=none;fillColor=#FF6666;align=center;verticalAlign=middle;whiteSpace=wrap;rounded=0;" parent="1" vertex="1">
          <mxGeometry x="905.75" y="960" width="109.5" height="30" as="geometry" />
        </mxCell>
        <mxCell id="Yw4l-M5PoHRuP-3W5IaQ-336" value="&lt;font style=&quot;font-size: 24px&quot; color=&quot;#ffffff&quot;&gt;会员&lt;/font&gt;" style="text;html=1;strokeColor=none;fillColor=#FF6666;align=center;verticalAlign=middle;whiteSpace=wrap;rounded=0;" parent="1" vertex="1">
          <mxGeometry x="930.5" y="1130" width="60" height="30" as="geometry" />
        </mxCell>
        <mxCell id="Yw4l-M5PoHRuP-3W5IaQ-337" value="&lt;font style=&quot;font-size: 24px&quot; color=&quot;#ffffff&quot;&gt;会员&lt;/font&gt;" style="text;html=1;strokeColor=none;fillColor=#FF6666;align=center;verticalAlign=middle;whiteSpace=wrap;rounded=0;" parent="1" vertex="1">
          <mxGeometry x="1093.5" y="1360" width="60" height="30" as="geometry" />
        </mxCell>
        <mxCell id="Yw4l-M5PoHRuP-3W5IaQ-338" value="&lt;font style=&quot;font-size: 24px&quot; color=&quot;#ffffff&quot;&gt;会员&lt;/font&gt;" style="text;html=1;strokeColor=none;fillColor=#FF6666;align=center;verticalAlign=middle;whiteSpace=wrap;rounded=0;" parent="1" vertex="1">
          <mxGeometry x="1295.5" y="1360" width="60" height="30" as="geometry" />
        </mxCell>
        <mxCell id="Yw4l-M5PoHRuP-3W5IaQ-339" value="&lt;font style=&quot;font-size: 24px&quot; color=&quot;#ffffff&quot;&gt;会员&lt;/font&gt;" style="text;html=1;strokeColor=none;fillColor=#FF6666;align=center;verticalAlign=middle;whiteSpace=wrap;rounded=0;" parent="1" vertex="1">
          <mxGeometry x="930.5" y="1360" width="60" height="30" as="geometry" />
        </mxCell>
        <mxCell id="Yw4l-M5PoHRuP-3W5IaQ-340" value="&lt;font style=&quot;font-size: 24px&quot; color=&quot;#ffffff&quot;&gt;会员&lt;/font&gt;" style="text;html=1;strokeColor=none;fillColor=#FF6666;align=center;verticalAlign=middle;whiteSpace=wrap;rounded=0;" parent="1" vertex="1">
          <mxGeometry x="745.5" y="1360" width="60" height="30" as="geometry" />
        </mxCell>
        <mxCell id="Yw4l-M5PoHRuP-3W5IaQ-341" value="&lt;font style=&quot;font-size: 24px&quot; color=&quot;#ffffff&quot;&gt;会员&lt;/font&gt;" style="text;html=1;strokeColor=none;fillColor=#FF6666;align=center;verticalAlign=middle;whiteSpace=wrap;rounded=0;" parent="1" vertex="1">
          <mxGeometry x="1190.5" y="1130" width="60" height="30" as="geometry" />
        </mxCell>
        <mxCell id="Yw4l-M5PoHRuP-3W5IaQ-342" value="&lt;font style=&quot;font-size: 22px&quot;&gt;13600000001&lt;br&gt;金牌&lt;br&gt;团队分成比例 0.6元&lt;/font&gt;" style="rounded=1;whiteSpace=wrap;html=1;fillColor=#FFFFFF;align=center;" parent="1" vertex="1">
          <mxGeometry x="1261" y="900" width="275" height="100" as="geometry" />
        </mxCell>
        <mxCell id="Yw4l-M5PoHRuP-3W5IaQ-343" value="&lt;span style=&quot;font-size: 24px&quot;&gt;&lt;font color=&quot;#330000&quot;&gt;购买者&lt;/font&gt;&lt;/span&gt;" style="text;html=1;strokeColor=#9673a6;fillColor=#e1d5e7;align=center;verticalAlign=middle;whiteSpace=wrap;rounded=0;" parent="1" vertex="1">
          <mxGeometry x="601" y="1180" width="109" height="30" as="geometry" />
        </mxCell>
        <mxCell id="Yw4l-M5PoHRuP-3W5IaQ-344" value="&lt;font style=&quot;font-size: 24px&quot; color=&quot;#ffffff&quot;&gt;会员&lt;/font&gt;" style="text;html=1;strokeColor=none;fillColor=#FF6666;align=center;verticalAlign=middle;whiteSpace=wrap;rounded=0;" parent="1" vertex="1">
          <mxGeometry x="626" y="1360" width="60" height="30" as="geometry" />
        </mxCell>
        <mxCell id="Yw4l-M5PoHRuP-3W5IaQ-345" value="&lt;font style=&quot;font-size: 24px&quot; color=&quot;#ffffff&quot;&gt;会员&lt;/font&gt;" style="text;html=1;strokeColor=none;fillColor=#FF6666;align=center;verticalAlign=middle;whiteSpace=wrap;rounded=0;" parent="1" vertex="1">
          <mxGeometry x="496" y="1590" width="60" height="30" as="geometry" />
        </mxCell>
        <mxCell id="Yw4l-M5PoHRuP-3W5IaQ-346" value="&lt;font style=&quot;font-size: 24px&quot; color=&quot;#ffffff&quot;&gt;会员&lt;/font&gt;" style="text;html=1;strokeColor=none;fillColor=#FF6666;align=center;verticalAlign=middle;whiteSpace=wrap;rounded=0;" parent="1" vertex="1">
          <mxGeometry x="496.5" y="1360" width="60" height="30" as="geometry" />
        </mxCell>
        <mxCell id="Yw4l-M5PoHRuP-3W5IaQ-347" value="" style="edgeStyle=orthogonalEdgeStyle;rounded=0;orthogonalLoop=1;jettySize=auto;html=1;align=center;" parent="1" source="Yw4l-M5PoHRuP-3W5IaQ-331" target="Yw4l-M5PoHRuP-3W5IaQ-346" edge="1">
          <mxGeometry relative="1" as="geometry">
            <mxPoint x="526" y="1340" as="sourcePoint" />
            <mxPoint x="526" y="1500" as="targetPoint" />
          </mxGeometry>
        </mxCell>
        <mxCell id="Yw4l-M5PoHRuP-3W5IaQ-348" value="" style="edgeStyle=orthogonalEdgeStyle;rounded=0;orthogonalLoop=1;jettySize=auto;html=1;align=center;" parent="1" source="Yw4l-M5PoHRuP-3W5IaQ-351" target="Yw4l-M5PoHRuP-3W5IaQ-363" edge="1">
          <mxGeometry relative="1" as="geometry" />
        </mxCell>
        <mxCell id="Yw4l-M5PoHRuP-3W5IaQ-349" value="" style="edgeStyle=orthogonalEdgeStyle;rounded=0;orthogonalLoop=1;jettySize=auto;html=1;align=center;" parent="1" source="Yw4l-M5PoHRuP-3W5IaQ-351" target="Yw4l-M5PoHRuP-3W5IaQ-359" edge="1">
          <mxGeometry relative="1" as="geometry" />
        </mxCell>
        <mxCell id="Yw4l-M5PoHRuP-3W5IaQ-350" value="" style="edgeStyle=orthogonalEdgeStyle;rounded=0;orthogonalLoop=1;jettySize=auto;html=1;align=center;" parent="1" source="Yw4l-M5PoHRuP-3W5IaQ-351" target="Yw4l-M5PoHRuP-3W5IaQ-354" edge="1">
          <mxGeometry relative="1" as="geometry" />
        </mxCell>
        <mxCell id="Yw4l-M5PoHRuP-3W5IaQ-351" value="13600000001" style="shape=umlActor;verticalLabelPosition=bottom;labelBackgroundColor=#ffffff;verticalAlign=top;html=1;outlineConnect=0;align=center;" parent="1" vertex="1">
          <mxGeometry x="945" y="1690" width="30" height="60" as="geometry" />
        </mxCell>
        <mxCell id="Yw4l-M5PoHRuP-3W5IaQ-352" value="" style="edgeStyle=orthogonalEdgeStyle;rounded=0;orthogonalLoop=1;jettySize=auto;html=1;align=center;" parent="1" source="Yw4l-M5PoHRuP-3W5IaQ-354" target="Yw4l-M5PoHRuP-3W5IaQ-356" edge="1">
          <mxGeometry relative="1" as="geometry" />
        </mxCell>
        <mxCell id="Yw4l-M5PoHRuP-3W5IaQ-353" value="" style="edgeStyle=orthogonalEdgeStyle;rounded=0;orthogonalLoop=1;jettySize=auto;html=1;align=center;" parent="1" source="Yw4l-M5PoHRuP-3W5IaQ-354" target="Yw4l-M5PoHRuP-3W5IaQ-355" edge="1">
          <mxGeometry relative="1" as="geometry" />
        </mxCell>
        <mxCell id="Yw4l-M5PoHRuP-3W5IaQ-354" value="13600000011" style="shape=umlActor;verticalLabelPosition=bottom;labelBackgroundColor=#ffffff;verticalAlign=top;html=1;outlineConnect=0;align=center;" parent="1" vertex="1">
          <mxGeometry x="1206" y="1860" width="30" height="60" as="geometry" />
        </mxCell>
        <mxCell id="Yw4l-M5PoHRuP-3W5IaQ-355" value="13600000006" style="shape=umlActor;verticalLabelPosition=bottom;labelBackgroundColor=#ffffff;verticalAlign=top;html=1;outlineConnect=0;align=center;" parent="1" vertex="1">
          <mxGeometry x="1310" y="2090" width="30" height="60" as="geometry" />
        </mxCell>
        <mxCell id="Yw4l-M5PoHRuP-3W5IaQ-356" value="13600000005" style="shape=umlActor;verticalLabelPosition=bottom;labelBackgroundColor=#ffffff;verticalAlign=top;html=1;outlineConnect=0;align=center;" parent="1" vertex="1">
          <mxGeometry x="1108" y="2090" width="30" height="60" as="geometry" />
        </mxCell>
        <mxCell id="Yw4l-M5PoHRuP-3W5IaQ-357" value="13600000007" style="shape=umlActor;verticalLabelPosition=bottom;labelBackgroundColor=#ffffff;verticalAlign=top;html=1;outlineConnect=0;align=center;" parent="1" vertex="1">
          <mxGeometry x="945" y="2090" width="30" height="60" as="geometry" />
        </mxCell>
        <mxCell id="Yw4l-M5PoHRuP-3W5IaQ-358" value="" style="edgeStyle=orthogonalEdgeStyle;rounded=0;orthogonalLoop=1;jettySize=auto;html=1;align=center;" parent="1" source="Yw4l-M5PoHRuP-3W5IaQ-359" target="Yw4l-M5PoHRuP-3W5IaQ-357" edge="1">
          <mxGeometry relative="1" as="geometry" />
        </mxCell>
        <mxCell id="Yw4l-M5PoHRuP-3W5IaQ-359" value="13600000003" style="shape=umlActor;verticalLabelPosition=bottom;labelBackgroundColor=#ffffff;verticalAlign=top;html=1;outlineConnect=0;align=center;" parent="1" vertex="1">
          <mxGeometry x="945" y="1860" width="30" height="60" as="geometry" />
        </mxCell>
        <mxCell id="Yw4l-M5PoHRuP-3W5IaQ-360" value="" style="edgeStyle=orthogonalEdgeStyle;rounded=0;orthogonalLoop=1;jettySize=auto;html=1;align=center;" parent="1" source="Yw4l-M5PoHRuP-3W5IaQ-363" target="Yw4l-M5PoHRuP-3W5IaQ-368" edge="1">
          <mxGeometry relative="1" as="geometry" />
        </mxCell>
        <mxCell id="Yw4l-M5PoHRuP-3W5IaQ-361" value="" style="edgeStyle=orthogonalEdgeStyle;rounded=0;orthogonalLoop=1;jettySize=auto;html=1;align=center;" parent="1" source="Yw4l-M5PoHRuP-3W5IaQ-363" target="Yw4l-M5PoHRuP-3W5IaQ-366" edge="1">
          <mxGeometry relative="1" as="geometry" />
        </mxCell>
        <mxCell id="Yw4l-M5PoHRuP-3W5IaQ-362" value="" style="edgeStyle=orthogonalEdgeStyle;rounded=0;orthogonalLoop=1;jettySize=auto;html=1;align=center;" parent="1" source="Yw4l-M5PoHRuP-3W5IaQ-363" target="Yw4l-M5PoHRuP-3W5IaQ-364" edge="1">
          <mxGeometry relative="1" as="geometry" />
        </mxCell>
        <mxCell id="Yw4l-M5PoHRuP-3W5IaQ-363" value="13600000002" style="shape=umlActor;verticalLabelPosition=bottom;labelBackgroundColor=#ffffff;verticalAlign=top;html=1;outlineConnect=0;align=center;" parent="1" vertex="1">
          <mxGeometry x="640.5" y="1860" width="30" height="60" as="geometry" />
        </mxCell>
        <mxCell id="Yw4l-M5PoHRuP-3W5IaQ-364" value="13600000009" style="shape=umlActor;verticalLabelPosition=bottom;labelBackgroundColor=#ffffff;verticalAlign=top;html=1;outlineConnect=0;align=center;" parent="1" vertex="1">
          <mxGeometry x="640.5" y="2090" width="30" height="60" as="geometry" />
        </mxCell>
        <mxCell id="Yw4l-M5PoHRuP-3W5IaQ-365" value="" style="edgeStyle=orthogonalEdgeStyle;rounded=0;orthogonalLoop=1;jettySize=auto;html=1;align=center;" parent="1" source="Yw4l-M5PoHRuP-3W5IaQ-381" target="Yw4l-M5PoHRuP-3W5IaQ-367" edge="1">
          <mxGeometry relative="1" as="geometry" />
        </mxCell>
        <mxCell id="Yw4l-M5PoHRuP-3W5IaQ-366" value="13600000008" style="shape=umlActor;verticalLabelPosition=bottom;labelBackgroundColor=#ffffff;verticalAlign=top;html=1;outlineConnect=0;align=center;" parent="1" vertex="1">
          <mxGeometry x="510.5" y="2090" width="30" height="60" as="geometry" />
        </mxCell>
        <mxCell id="Yw4l-M5PoHRuP-3W5IaQ-367" value="13600000004" style="shape=umlActor;verticalLabelPosition=bottom;labelBackgroundColor=#ffffff;verticalAlign=top;html=1;outlineConnect=0;align=center;" parent="1" vertex="1">
          <mxGeometry x="511" y="2310" width="30" height="60" as="geometry" />
        </mxCell>
        <mxCell id="Yw4l-M5PoHRuP-3W5IaQ-368" value="13600000010" style="shape=umlActor;verticalLabelPosition=bottom;labelBackgroundColor=#ffffff;verticalAlign=top;html=1;outlineConnect=0;align=center;" parent="1" vertex="1">
          <mxGeometry x="760" y="2090" width="30" height="60" as="geometry" />
        </mxCell>
        <mxCell id="Yw4l-M5PoHRuP-3W5IaQ-370" value="&lt;font color=&quot;#ffffff&quot;&gt;&lt;span style=&quot;font-size: 24px&quot;&gt;专卖店&lt;/span&gt;&lt;/font&gt;" style="text;html=1;strokeColor=none;fillColor=#FF6666;align=center;verticalAlign=middle;whiteSpace=wrap;rounded=0;" parent="1" vertex="1">
          <mxGeometry x="905.25" y="1770" width="109.5" height="30" as="geometry" />
        </mxCell>
        <mxCell id="Yw4l-M5PoHRuP-3W5IaQ-371" value="&lt;font style=&quot;font-size: 24px&quot; color=&quot;#ffffff&quot;&gt;会员&lt;/font&gt;" style="text;html=1;strokeColor=none;fillColor=#FF6666;align=center;verticalAlign=middle;whiteSpace=wrap;rounded=0;" parent="1" vertex="1">
          <mxGeometry x="930" y="1940" width="60" height="30" as="geometry" />
        </mxCell>
        <mxCell id="Yw4l-M5PoHRuP-3W5IaQ-372" value="&lt;font style=&quot;font-size: 24px&quot; color=&quot;#ffffff&quot;&gt;会员&lt;/font&gt;" style="text;html=1;strokeColor=none;fillColor=#FF6666;align=center;verticalAlign=middle;whiteSpace=wrap;rounded=0;" parent="1" vertex="1">
          <mxGeometry x="1093" y="2170" width="60" height="30" as="geometry" />
        </mxCell>
        <mxCell id="Yw4l-M5PoHRuP-3W5IaQ-373" value="&lt;font style=&quot;font-size: 24px&quot; color=&quot;#ffffff&quot;&gt;会员&lt;/font&gt;" style="text;html=1;strokeColor=none;fillColor=#FF6666;align=center;verticalAlign=middle;whiteSpace=wrap;rounded=0;" parent="1" vertex="1">
          <mxGeometry x="1295" y="2170" width="60" height="30" as="geometry" />
        </mxCell>
        <mxCell id="Yw4l-M5PoHRuP-3W5IaQ-374" value="&lt;font style=&quot;font-size: 24px&quot; color=&quot;#ffffff&quot;&gt;会员&lt;/font&gt;" style="text;html=1;strokeColor=none;fillColor=#FF6666;align=center;verticalAlign=middle;whiteSpace=wrap;rounded=0;" parent="1" vertex="1">
          <mxGeometry x="930" y="2170" width="60" height="30" as="geometry" />
        </mxCell>
        <mxCell id="Yw4l-M5PoHRuP-3W5IaQ-375" value="&lt;font style=&quot;font-size: 24px&quot; color=&quot;#ffffff&quot;&gt;会员&lt;/font&gt;" style="text;html=1;strokeColor=none;fillColor=#FF6666;align=center;verticalAlign=middle;whiteSpace=wrap;rounded=0;" parent="1" vertex="1">
          <mxGeometry x="745" y="2170" width="60" height="30" as="geometry" />
        </mxCell>
        <mxCell id="Yw4l-M5PoHRuP-3W5IaQ-376" value="&lt;font style=&quot;font-size: 24px&quot; color=&quot;#ffffff&quot;&gt;会员&lt;/font&gt;" style="text;html=1;strokeColor=none;fillColor=#FF6666;align=center;verticalAlign=middle;whiteSpace=wrap;rounded=0;" parent="1" vertex="1">
          <mxGeometry x="1191" y="1940" width="60" height="30" as="geometry" />
        </mxCell>
        <mxCell id="Yw4l-M5PoHRuP-3W5IaQ-377" value="&lt;font style=&quot;font-size: 22px&quot;&gt;13600000002&lt;br&gt;金牌&lt;br&gt;&amp;nbsp;团队分成 1元&lt;/font&gt;" style="rounded=1;whiteSpace=wrap;html=1;fillColor=#FFFFFF;align=center;" parent="1" vertex="1">
          <mxGeometry x="1250.5" y="1660" width="275" height="100" as="geometry" />
        </mxCell>
        <mxCell id="Yw4l-M5PoHRuP-3W5IaQ-378" value="&lt;span style=&quot;font-size: 24px&quot;&gt;&lt;font color=&quot;#330000&quot;&gt;购买者&lt;/font&gt;&lt;/span&gt;" style="text;html=1;strokeColor=#9673a6;fillColor=#e1d5e7;align=center;verticalAlign=middle;whiteSpace=wrap;rounded=0;" parent="1" vertex="1">
          <mxGeometry x="472" y="2210" width="109" height="30" as="geometry" />
        </mxCell>
        <mxCell id="Yw4l-M5PoHRuP-3W5IaQ-379" value="&lt;font style=&quot;font-size: 24px&quot; color=&quot;#ffffff&quot;&gt;会员&lt;/font&gt;" style="text;html=1;strokeColor=none;fillColor=#FF6666;align=center;verticalAlign=middle;whiteSpace=wrap;rounded=0;" parent="1" vertex="1">
          <mxGeometry x="625.5" y="2170" width="60" height="30" as="geometry" />
        </mxCell>
        <mxCell id="Yw4l-M5PoHRuP-3W5IaQ-380" value="&lt;font style=&quot;font-size: 24px&quot; color=&quot;#ffffff&quot;&gt;会员&lt;/font&gt;" style="text;html=1;strokeColor=none;fillColor=#FF6666;align=center;verticalAlign=middle;whiteSpace=wrap;rounded=0;" parent="1" vertex="1">
          <mxGeometry x="495.5" y="2400" width="60" height="30" as="geometry" />
        </mxCell>
        <mxCell id="Yw4l-M5PoHRuP-3W5IaQ-381" value="&lt;font style=&quot;font-size: 24px&quot; color=&quot;#ffffff&quot;&gt;会员&lt;/font&gt;" style="text;html=1;strokeColor=none;fillColor=#FF6666;align=center;verticalAlign=middle;whiteSpace=wrap;rounded=0;" parent="1" vertex="1">
          <mxGeometry x="496" y="2170" width="60" height="30" as="geometry" />
        </mxCell>
        <mxCell id="Yw4l-M5PoHRuP-3W5IaQ-382" value="" style="edgeStyle=orthogonalEdgeStyle;rounded=0;orthogonalLoop=1;jettySize=auto;html=1;align=center;" parent="1" source="Yw4l-M5PoHRuP-3W5IaQ-366" target="Yw4l-M5PoHRuP-3W5IaQ-381" edge="1">
          <mxGeometry relative="1" as="geometry">
            <mxPoint x="525.5" y="2150" as="sourcePoint" />
            <mxPoint x="525.5" y="2310" as="targetPoint" />
          </mxGeometry>
        </mxCell>
        <mxCell id="Yw4l-M5PoHRuP-3W5IaQ-383" value="&lt;font color=&quot;#ffffff&quot;&gt;&lt;span style=&quot;font-size: 24px&quot;&gt;专卖店&lt;/span&gt;&lt;/font&gt;" style="text;html=1;strokeColor=none;fillColor=#FF6666;align=center;verticalAlign=middle;whiteSpace=wrap;rounded=0;" parent="1" vertex="1">
          <mxGeometry x="610" y="1940" width="109.5" height="30" as="geometry" />
        </mxCell>
        <mxCell id="Yw4l-M5PoHRuP-3W5IaQ-387" value="&lt;font style=&quot;font-size: 22px&quot;&gt;13600000001&lt;br&gt;金牌&lt;br&gt;&amp;nbsp;团队管理 1*0.2 =0.2元&lt;/font&gt;" style="rounded=1;whiteSpace=wrap;html=1;fillColor=#FFFFFF;align=center;" parent="1" vertex="1">
          <mxGeometry x="1251" y="1770" width="275" height="100" as="geometry" />
        </mxCell>
        <mxCell id="Yw4l-M5PoHRuP-3W5IaQ-388" value="" style="edgeStyle=orthogonalEdgeStyle;rounded=0;orthogonalLoop=1;jettySize=auto;html=1;align=center;" parent="1" source="Yw4l-M5PoHRuP-3W5IaQ-391" target="Yw4l-M5PoHRuP-3W5IaQ-403" edge="1">
          <mxGeometry relative="1" as="geometry" />
        </mxCell>
        <mxCell id="Yw4l-M5PoHRuP-3W5IaQ-389" value="" style="edgeStyle=orthogonalEdgeStyle;rounded=0;orthogonalLoop=1;jettySize=auto;html=1;align=center;" parent="1" source="Yw4l-M5PoHRuP-3W5IaQ-391" target="Yw4l-M5PoHRuP-3W5IaQ-399" edge="1">
          <mxGeometry relative="1" as="geometry" />
        </mxCell>
        <mxCell id="Yw4l-M5PoHRuP-3W5IaQ-390" value="" style="edgeStyle=orthogonalEdgeStyle;rounded=0;orthogonalLoop=1;jettySize=auto;html=1;align=center;" parent="1" source="Yw4l-M5PoHRuP-3W5IaQ-391" target="Yw4l-M5PoHRuP-3W5IaQ-394" edge="1">
          <mxGeometry relative="1" as="geometry" />
        </mxCell>
        <mxCell id="Yw4l-M5PoHRuP-3W5IaQ-391" value="13600000001" style="shape=umlActor;verticalLabelPosition=bottom;labelBackgroundColor=#ffffff;verticalAlign=top;html=1;outlineConnect=0;align=center;" parent="1" vertex="1">
          <mxGeometry x="945" y="2510" width="30" height="60" as="geometry" />
        </mxCell>
        <mxCell id="Yw4l-M5PoHRuP-3W5IaQ-392" value="" style="edgeStyle=orthogonalEdgeStyle;rounded=0;orthogonalLoop=1;jettySize=auto;html=1;align=center;" parent="1" source="Yw4l-M5PoHRuP-3W5IaQ-394" target="Yw4l-M5PoHRuP-3W5IaQ-396" edge="1">
          <mxGeometry relative="1" as="geometry" />
        </mxCell>
        <mxCell id="Yw4l-M5PoHRuP-3W5IaQ-393" value="" style="edgeStyle=orthogonalEdgeStyle;rounded=0;orthogonalLoop=1;jettySize=auto;html=1;align=center;" parent="1" source="Yw4l-M5PoHRuP-3W5IaQ-394" target="Yw4l-M5PoHRuP-3W5IaQ-395" edge="1">
          <mxGeometry relative="1" as="geometry" />
        </mxCell>
        <mxCell id="Yw4l-M5PoHRuP-3W5IaQ-394" value="13600000011" style="shape=umlActor;verticalLabelPosition=bottom;labelBackgroundColor=#ffffff;verticalAlign=top;html=1;outlineConnect=0;align=center;" parent="1" vertex="1">
          <mxGeometry x="1205.5" y="2680" width="30" height="60" as="geometry" />
        </mxCell>
        <mxCell id="Yw4l-M5PoHRuP-3W5IaQ-395" value="13600000006" style="shape=umlActor;verticalLabelPosition=bottom;labelBackgroundColor=#ffffff;verticalAlign=top;html=1;outlineConnect=0;align=center;" parent="1" vertex="1">
          <mxGeometry x="1310" y="2910" width="30" height="60" as="geometry" />
        </mxCell>
        <mxCell id="Yw4l-M5PoHRuP-3W5IaQ-396" value="13600000005" style="shape=umlActor;verticalLabelPosition=bottom;labelBackgroundColor=#ffffff;verticalAlign=top;html=1;outlineConnect=0;align=center;" parent="1" vertex="1">
          <mxGeometry x="1108" y="2910" width="30" height="60" as="geometry" />
        </mxCell>
        <mxCell id="Yw4l-M5PoHRuP-3W5IaQ-397" value="13600000007" style="shape=umlActor;verticalLabelPosition=bottom;labelBackgroundColor=#ffffff;verticalAlign=top;html=1;outlineConnect=0;align=center;" parent="1" vertex="1">
          <mxGeometry x="945" y="2910" width="30" height="60" as="geometry" />
        </mxCell>
        <mxCell id="Yw4l-M5PoHRuP-3W5IaQ-398" value="" style="edgeStyle=orthogonalEdgeStyle;rounded=0;orthogonalLoop=1;jettySize=auto;html=1;align=center;" parent="1" source="Yw4l-M5PoHRuP-3W5IaQ-399" target="Yw4l-M5PoHRuP-3W5IaQ-397" edge="1">
          <mxGeometry relative="1" as="geometry" />
        </mxCell>
        <mxCell id="Yw4l-M5PoHRuP-3W5IaQ-399" value="13600000003" style="shape=umlActor;verticalLabelPosition=bottom;labelBackgroundColor=#ffffff;verticalAlign=top;html=1;outlineConnect=0;align=center;" parent="1" vertex="1">
          <mxGeometry x="945" y="2680" width="30" height="60" as="geometry" />
        </mxCell>
        <mxCell id="Yw4l-M5PoHRuP-3W5IaQ-400" value="" style="edgeStyle=orthogonalEdgeStyle;rounded=0;orthogonalLoop=1;jettySize=auto;html=1;align=center;" parent="1" source="Yw4l-M5PoHRuP-3W5IaQ-403" target="Yw4l-M5PoHRuP-3W5IaQ-408" edge="1">
          <mxGeometry relative="1" as="geometry" />
        </mxCell>
        <mxCell id="Yw4l-M5PoHRuP-3W5IaQ-401" value="" style="edgeStyle=orthogonalEdgeStyle;rounded=0;orthogonalLoop=1;jettySize=auto;html=1;align=center;" parent="1" source="Yw4l-M5PoHRuP-3W5IaQ-403" target="Yw4l-M5PoHRuP-3W5IaQ-406" edge="1">
          <mxGeometry relative="1" as="geometry" />
        </mxCell>
        <mxCell id="Yw4l-M5PoHRuP-3W5IaQ-402" value="" style="edgeStyle=orthogonalEdgeStyle;rounded=0;orthogonalLoop=1;jettySize=auto;html=1;align=center;" parent="1" source="Yw4l-M5PoHRuP-3W5IaQ-422" target="Yw4l-M5PoHRuP-3W5IaQ-404" edge="1">
          <mxGeometry relative="1" as="geometry" />
        </mxCell>
        <mxCell id="Yw4l-M5PoHRuP-3W5IaQ-403" value="13600000002" style="shape=umlActor;verticalLabelPosition=bottom;labelBackgroundColor=#ffffff;verticalAlign=top;html=1;outlineConnect=0;align=center;" parent="1" vertex="1">
          <mxGeometry x="640.5" y="2680" width="30" height="60" as="geometry" />
        </mxCell>
        <mxCell id="Yw4l-M5PoHRuP-3W5IaQ-404" value="13600000009" style="shape=umlActor;verticalLabelPosition=bottom;labelBackgroundColor=#ffffff;verticalAlign=top;html=1;outlineConnect=0;align=center;" parent="1" vertex="1">
          <mxGeometry x="640.5" y="2910" width="30" height="60" as="geometry" />
        </mxCell>
        <mxCell id="Yw4l-M5PoHRuP-3W5IaQ-430" style="edgeStyle=orthogonalEdgeStyle;rounded=0;orthogonalLoop=1;jettySize=auto;html=1;align=center;" parent="1" source="Yw4l-M5PoHRuP-3W5IaQ-406" target="Yw4l-M5PoHRuP-3W5IaQ-407" edge="1">
          <mxGeometry relative="1" as="geometry" />
        </mxCell>
        <mxCell id="Yw4l-M5PoHRuP-3W5IaQ-406" value="13600000008" style="shape=umlActor;verticalLabelPosition=bottom;labelBackgroundColor=#ffffff;verticalAlign=top;html=1;outlineConnect=0;align=center;" parent="1" vertex="1">
          <mxGeometry x="510.5" y="2910" width="30" height="60" as="geometry" />
        </mxCell>
        <mxCell id="Yw4l-M5PoHRuP-3W5IaQ-407" value="13600000004" style="shape=umlActor;verticalLabelPosition=bottom;labelBackgroundColor=#ffffff;verticalAlign=top;html=1;outlineConnect=0;align=center;" parent="1" vertex="1">
          <mxGeometry x="511.5" y="3080" width="30" height="60" as="geometry" />
        </mxCell>
        <mxCell id="Yw4l-M5PoHRuP-3W5IaQ-408" value="13600000010" style="shape=umlActor;verticalLabelPosition=bottom;labelBackgroundColor=#ffffff;verticalAlign=top;html=1;outlineConnect=0;align=center;" parent="1" vertex="1">
          <mxGeometry x="760" y="2910" width="30" height="60" as="geometry" />
        </mxCell>
        <mxCell id="Yw4l-M5PoHRuP-3W5IaQ-409" value="&lt;font color=&quot;#ffffff&quot;&gt;&lt;span style=&quot;font-size: 24px&quot;&gt;专卖店&lt;/span&gt;&lt;/font&gt;" style="text;html=1;strokeColor=none;fillColor=#FF6666;align=center;verticalAlign=middle;whiteSpace=wrap;rounded=0;" parent="1" vertex="1">
          <mxGeometry x="905.25" y="2590" width="109.5" height="30" as="geometry" />
        </mxCell>
        <mxCell id="Yw4l-M5PoHRuP-3W5IaQ-410" value="&lt;font style=&quot;font-size: 24px&quot; color=&quot;#ffffff&quot;&gt;会员&lt;/font&gt;" style="text;html=1;strokeColor=none;fillColor=#FF6666;align=center;verticalAlign=middle;whiteSpace=wrap;rounded=0;" parent="1" vertex="1">
          <mxGeometry x="930" y="2760" width="60" height="30" as="geometry" />
        </mxCell>
        <mxCell id="Yw4l-M5PoHRuP-3W5IaQ-411" value="&lt;font style=&quot;font-size: 24px&quot; color=&quot;#ffffff&quot;&gt;会员&lt;/font&gt;" style="text;html=1;strokeColor=none;fillColor=#FF6666;align=center;verticalAlign=middle;whiteSpace=wrap;rounded=0;" parent="1" vertex="1">
          <mxGeometry x="1093.5" y="3000" width="60" height="30" as="geometry" />
        </mxCell>
        <mxCell id="Yw4l-M5PoHRuP-3W5IaQ-412" value="&lt;font style=&quot;font-size: 24px&quot; color=&quot;#ffffff&quot;&gt;会员&lt;/font&gt;" style="text;html=1;strokeColor=none;fillColor=#FF6666;align=center;verticalAlign=middle;whiteSpace=wrap;rounded=0;" parent="1" vertex="1">
          <mxGeometry x="1295" y="3000" width="60" height="30" as="geometry" />
        </mxCell>
        <mxCell id="Yw4l-M5PoHRuP-3W5IaQ-413" value="&lt;font style=&quot;font-size: 24px&quot; color=&quot;#ffffff&quot;&gt;会员&lt;/font&gt;" style="text;html=1;strokeColor=none;fillColor=#FF6666;align=center;verticalAlign=middle;whiteSpace=wrap;rounded=0;" parent="1" vertex="1">
          <mxGeometry x="930.5" y="3000" width="60" height="30" as="geometry" />
        </mxCell>
        <mxCell id="Yw4l-M5PoHRuP-3W5IaQ-414" value="&lt;font style=&quot;font-size: 24px&quot; color=&quot;#ffffff&quot;&gt;会员&lt;/font&gt;" style="text;html=1;strokeColor=none;fillColor=#FF6666;align=center;verticalAlign=middle;whiteSpace=wrap;rounded=0;" parent="1" vertex="1">
          <mxGeometry x="745.5" y="3000" width="60" height="30" as="geometry" />
        </mxCell>
        <mxCell id="Yw4l-M5PoHRuP-3W5IaQ-415" value="&lt;font style=&quot;font-size: 24px&quot; color=&quot;#ffffff&quot;&gt;会员&lt;/font&gt;" style="text;html=1;strokeColor=none;fillColor=#FF6666;align=center;verticalAlign=middle;whiteSpace=wrap;rounded=0;" parent="1" vertex="1">
          <mxGeometry x="1191" y="2760" width="60" height="30" as="geometry" />
        </mxCell>
        <mxCell id="Yw4l-M5PoHRuP-3W5IaQ-416" value="&lt;font style=&quot;font-size: 22px&quot;&gt;13600000008&lt;br&gt;银牌&lt;br&gt;&amp;nbsp;团队分成 0.6元&lt;/font&gt;" style="rounded=1;whiteSpace=wrap;html=1;fillColor=#FFFFFF;align=center;" parent="1" vertex="1">
          <mxGeometry x="1250.5" y="2480" width="275" height="100" as="geometry" />
        </mxCell>
        <mxCell id="Yw4l-M5PoHRuP-3W5IaQ-417" value="&lt;span style=&quot;font-size: 24px&quot;&gt;&lt;font color=&quot;#330000&quot;&gt;购买者&lt;/font&gt;&lt;/span&gt;" style="text;html=1;strokeColor=#9673a6;fillColor=#e1d5e7;align=center;verticalAlign=middle;whiteSpace=wrap;rounded=0;" parent="1" vertex="1">
          <mxGeometry x="472" y="3210" width="109" height="30" as="geometry" />
        </mxCell>
        <mxCell id="Yw4l-M5PoHRuP-3W5IaQ-418" value="&lt;font style=&quot;font-size: 24px&quot; color=&quot;#ffffff&quot;&gt;会员&lt;/font&gt;" style="text;html=1;strokeColor=none;fillColor=#FF6666;align=center;verticalAlign=middle;whiteSpace=wrap;rounded=0;" parent="1" vertex="1">
          <mxGeometry x="625.5" y="3000" width="60" height="30" as="geometry" />
        </mxCell>
        <mxCell id="Yw4l-M5PoHRuP-3W5IaQ-419" value="&lt;font style=&quot;font-size: 24px&quot; color=&quot;#ffffff&quot;&gt;会员&lt;/font&gt;" style="text;html=1;strokeColor=none;fillColor=#FF6666;align=center;verticalAlign=middle;whiteSpace=wrap;rounded=0;" parent="1" vertex="1">
          <mxGeometry x="495.5" y="3170" width="60" height="30" as="geometry" />
        </mxCell>
        <mxCell id="Yw4l-M5PoHRuP-3W5IaQ-423" value="&lt;font style=&quot;font-size: 22px&quot;&gt;13600000002&lt;br&gt;银牌&lt;br&gt;&amp;nbsp;团队管理 0.6*0.2 =0.12元&lt;/font&gt;" style="rounded=1;whiteSpace=wrap;html=1;fillColor=#FFFFFF;align=center;" parent="1" vertex="1">
          <mxGeometry x="1251" y="2590" width="275" height="100" as="geometry" />
        </mxCell>
        <mxCell id="Yw4l-M5PoHRuP-3W5IaQ-420" value="&lt;font color=&quot;#ffffff&quot;&gt;&lt;span style=&quot;font-size: 24px&quot;&gt;专卖店&lt;/span&gt;&lt;/font&gt;" style="text;html=1;strokeColor=none;fillColor=#FF6666;align=center;verticalAlign=middle;whiteSpace=wrap;rounded=0;" parent="1" vertex="1">
          <mxGeometry x="478.75" y="3000" width="95.5" height="30" as="geometry" />
        </mxCell>
        <mxCell id="Yw4l-M5PoHRuP-3W5IaQ-433" value="" style="edgeStyle=orthogonalEdgeStyle;rounded=0;orthogonalLoop=1;jettySize=auto;html=1;align=center;" parent="1" source="Yw4l-M5PoHRuP-3W5IaQ-436" target="Yw4l-M5PoHRuP-3W5IaQ-448" edge="1">
          <mxGeometry relative="1" as="geometry" />
        </mxCell>
        <mxCell id="Yw4l-M5PoHRuP-3W5IaQ-434" value="" style="edgeStyle=orthogonalEdgeStyle;rounded=0;orthogonalLoop=1;jettySize=auto;html=1;align=center;" parent="1" source="Yw4l-M5PoHRuP-3W5IaQ-436" target="Yw4l-M5PoHRuP-3W5IaQ-444" edge="1">
          <mxGeometry relative="1" as="geometry" />
        </mxCell>
        <mxCell id="Yw4l-M5PoHRuP-3W5IaQ-435" value="" style="edgeStyle=orthogonalEdgeStyle;rounded=0;orthogonalLoop=1;jettySize=auto;html=1;align=center;" parent="1" source="Yw4l-M5PoHRuP-3W5IaQ-436" target="Yw4l-M5PoHRuP-3W5IaQ-439" edge="1">
          <mxGeometry relative="1" as="geometry" />
        </mxCell>
        <mxCell id="Yw4l-M5PoHRuP-3W5IaQ-436" value="13600000001" style="shape=umlActor;verticalLabelPosition=bottom;labelBackgroundColor=#ffffff;verticalAlign=top;html=1;outlineConnect=0;align=center;" parent="1" vertex="1">
          <mxGeometry x="945" y="3310" width="30" height="60" as="geometry" />
        </mxCell>
        <mxCell id="Yw4l-M5PoHRuP-3W5IaQ-437" value="" style="edgeStyle=orthogonalEdgeStyle;rounded=0;orthogonalLoop=1;jettySize=auto;html=1;align=center;" parent="1" source="Yw4l-M5PoHRuP-3W5IaQ-439" target="Yw4l-M5PoHRuP-3W5IaQ-441" edge="1">
          <mxGeometry relative="1" as="geometry" />
        </mxCell>
        <mxCell id="Yw4l-M5PoHRuP-3W5IaQ-438" value="" style="edgeStyle=orthogonalEdgeStyle;rounded=0;orthogonalLoop=1;jettySize=auto;html=1;align=center;" parent="1" source="Yw4l-M5PoHRuP-3W5IaQ-439" target="Yw4l-M5PoHRuP-3W5IaQ-440" edge="1">
          <mxGeometry relative="1" as="geometry" />
        </mxCell>
        <mxCell id="Yw4l-M5PoHRuP-3W5IaQ-439" value="13600000011" style="shape=umlActor;verticalLabelPosition=bottom;labelBackgroundColor=#ffffff;verticalAlign=top;html=1;outlineConnect=0;align=center;" parent="1" vertex="1">
          <mxGeometry x="1206" y="3480" width="30" height="60" as="geometry" />
        </mxCell>
        <mxCell id="Yw4l-M5PoHRuP-3W5IaQ-440" value="13600000006" style="shape=umlActor;verticalLabelPosition=bottom;labelBackgroundColor=#ffffff;verticalAlign=top;html=1;outlineConnect=0;align=center;" parent="1" vertex="1">
          <mxGeometry x="1310" y="3710" width="30" height="60" as="geometry" />
        </mxCell>
        <mxCell id="Yw4l-M5PoHRuP-3W5IaQ-441" value="13600000005" style="shape=umlActor;verticalLabelPosition=bottom;labelBackgroundColor=#ffffff;verticalAlign=top;html=1;outlineConnect=0;align=center;" parent="1" vertex="1">
          <mxGeometry x="1108" y="3710" width="30" height="60" as="geometry" />
        </mxCell>
        <mxCell id="Yw4l-M5PoHRuP-3W5IaQ-442" value="13600000007" style="shape=umlActor;verticalLabelPosition=bottom;labelBackgroundColor=#ffffff;verticalAlign=top;html=1;outlineConnect=0;align=center;" parent="1" vertex="1">
          <mxGeometry x="945" y="3710" width="30" height="60" as="geometry" />
        </mxCell>
        <mxCell id="Yw4l-M5PoHRuP-3W5IaQ-443" value="" style="edgeStyle=orthogonalEdgeStyle;rounded=0;orthogonalLoop=1;jettySize=auto;html=1;align=center;" parent="1" source="Yw4l-M5PoHRuP-3W5IaQ-444" target="Yw4l-M5PoHRuP-3W5IaQ-442" edge="1">
          <mxGeometry relative="1" as="geometry" />
        </mxCell>
        <mxCell id="Yw4l-M5PoHRuP-3W5IaQ-444" value="13600000003" style="shape=umlActor;verticalLabelPosition=bottom;labelBackgroundColor=#ffffff;verticalAlign=top;html=1;outlineConnect=0;align=center;" parent="1" vertex="1">
          <mxGeometry x="945" y="3480" width="30" height="60" as="geometry" />
        </mxCell>
        <mxCell id="Yw4l-M5PoHRuP-3W5IaQ-445" value="" style="edgeStyle=orthogonalEdgeStyle;rounded=0;orthogonalLoop=1;jettySize=auto;html=1;align=center;" parent="1" source="Yw4l-M5PoHRuP-3W5IaQ-448" target="Yw4l-M5PoHRuP-3W5IaQ-453" edge="1">
          <mxGeometry relative="1" as="geometry" />
        </mxCell>
        <mxCell id="Yw4l-M5PoHRuP-3W5IaQ-446" value="" style="edgeStyle=orthogonalEdgeStyle;rounded=0;orthogonalLoop=1;jettySize=auto;html=1;align=center;" parent="1" source="Yw4l-M5PoHRuP-3W5IaQ-448" target="Yw4l-M5PoHRuP-3W5IaQ-451" edge="1">
          <mxGeometry relative="1" as="geometry" />
        </mxCell>
        <mxCell id="Yw4l-M5PoHRuP-3W5IaQ-447" value="" style="edgeStyle=orthogonalEdgeStyle;rounded=0;orthogonalLoop=1;jettySize=auto;html=1;align=center;" parent="1" source="Yw4l-M5PoHRuP-3W5IaQ-448" target="Yw4l-M5PoHRuP-3W5IaQ-449" edge="1">
          <mxGeometry relative="1" as="geometry" />
        </mxCell>
        <mxCell id="Yw4l-M5PoHRuP-3W5IaQ-448" value="13600000002" style="shape=umlActor;verticalLabelPosition=bottom;labelBackgroundColor=#ffffff;verticalAlign=top;html=1;outlineConnect=0;align=center;" parent="1" vertex="1">
          <mxGeometry x="640.5" y="3480" width="30" height="60" as="geometry" />
        </mxCell>
        <mxCell id="Yw4l-M5PoHRuP-3W5IaQ-449" value="13600000009" style="shape=umlActor;verticalLabelPosition=bottom;labelBackgroundColor=#ffffff;verticalAlign=top;html=1;outlineConnect=0;align=center;" parent="1" vertex="1">
          <mxGeometry x="640.5" y="3710" width="30" height="60" as="geometry" />
        </mxCell>
        <mxCell id="Yw4l-M5PoHRuP-3W5IaQ-450" style="edgeStyle=orthogonalEdgeStyle;rounded=0;orthogonalLoop=1;jettySize=auto;html=1;align=center;" parent="1" source="Yw4l-M5PoHRuP-3W5IaQ-451" target="Yw4l-M5PoHRuP-3W5IaQ-452" edge="1">
          <mxGeometry relative="1" as="geometry" />
        </mxCell>
        <mxCell id="Yw4l-M5PoHRuP-3W5IaQ-451" value="13600000008" style="shape=umlActor;verticalLabelPosition=bottom;labelBackgroundColor=#ffffff;verticalAlign=top;html=1;outlineConnect=0;align=center;" parent="1" vertex="1">
          <mxGeometry x="510.5" y="3710" width="30" height="60" as="geometry" />
        </mxCell>
        <mxCell id="Yw4l-M5PoHRuP-3W5IaQ-452" value="13600000004" style="shape=umlActor;verticalLabelPosition=bottom;labelBackgroundColor=#ffffff;verticalAlign=top;html=1;outlineConnect=0;align=center;" parent="1" vertex="1">
          <mxGeometry x="511.5" y="3880" width="30" height="60" as="geometry" />
        </mxCell>
        <mxCell id="Yw4l-M5PoHRuP-3W5IaQ-453" value="13600000010" style="shape=umlActor;verticalLabelPosition=bottom;labelBackgroundColor=#ffffff;verticalAlign=top;html=1;outlineConnect=0;align=center;" parent="1" vertex="1">
          <mxGeometry x="760" y="3710" width="30" height="60" as="geometry" />
        </mxCell>
        <mxCell id="Yw4l-M5PoHRuP-3W5IaQ-454" value="&lt;font color=&quot;#ffffff&quot;&gt;&lt;span style=&quot;font-size: 24px&quot;&gt;专卖店&lt;/span&gt;&lt;/font&gt;" style="text;html=1;strokeColor=none;fillColor=#FF6666;align=center;verticalAlign=middle;whiteSpace=wrap;rounded=0;" parent="1" vertex="1">
          <mxGeometry x="905.25" y="3390" width="109.5" height="30" as="geometry" />
        </mxCell>
        <mxCell id="Yw4l-M5PoHRuP-3W5IaQ-455" value="&lt;font style=&quot;font-size: 24px&quot; color=&quot;#ffffff&quot;&gt;会员&lt;/font&gt;" style="text;html=1;strokeColor=none;fillColor=#FF6666;align=center;verticalAlign=middle;whiteSpace=wrap;rounded=0;" parent="1" vertex="1">
          <mxGeometry x="930" y="3560" width="60" height="30" as="geometry" />
        </mxCell>
        <mxCell id="Yw4l-M5PoHRuP-3W5IaQ-456" value="&lt;font style=&quot;font-size: 24px&quot; color=&quot;#ffffff&quot;&gt;会员&lt;/font&gt;" style="text;html=1;strokeColor=none;fillColor=#FF6666;align=center;verticalAlign=middle;whiteSpace=wrap;rounded=0;" parent="1" vertex="1">
          <mxGeometry x="1093.5" y="3800" width="60" height="30" as="geometry" />
        </mxCell>
        <mxCell id="Yw4l-M5PoHRuP-3W5IaQ-457" value="&lt;font style=&quot;font-size: 24px&quot; color=&quot;#ffffff&quot;&gt;会员&lt;/font&gt;" style="text;html=1;strokeColor=none;fillColor=#FF6666;align=center;verticalAlign=middle;whiteSpace=wrap;rounded=0;" parent="1" vertex="1">
          <mxGeometry x="1295" y="3800" width="60" height="30" as="geometry" />
        </mxCell>
        <mxCell id="Yw4l-M5PoHRuP-3W5IaQ-458" value="&lt;font style=&quot;font-size: 24px&quot; color=&quot;#ffffff&quot;&gt;会员&lt;/font&gt;" style="text;html=1;strokeColor=none;fillColor=#FF6666;align=center;verticalAlign=middle;whiteSpace=wrap;rounded=0;" parent="1" vertex="1">
          <mxGeometry x="930.5" y="3800" width="60" height="30" as="geometry" />
        </mxCell>
        <mxCell id="Yw4l-M5PoHRuP-3W5IaQ-459" value="&lt;font style=&quot;font-size: 24px&quot; color=&quot;#ffffff&quot;&gt;会员&lt;/font&gt;" style="text;html=1;strokeColor=none;fillColor=#FF6666;align=center;verticalAlign=middle;whiteSpace=wrap;rounded=0;" parent="1" vertex="1">
          <mxGeometry x="745.5" y="3800" width="60" height="30" as="geometry" />
        </mxCell>
        <mxCell id="Yw4l-M5PoHRuP-3W5IaQ-460" value="&lt;font style=&quot;font-size: 24px&quot; color=&quot;#ffffff&quot;&gt;会员&lt;/font&gt;" style="text;html=1;strokeColor=none;fillColor=#FF6666;align=center;verticalAlign=middle;whiteSpace=wrap;rounded=0;" parent="1" vertex="1">
          <mxGeometry x="1191" y="3560" width="60" height="30" as="geometry" />
        </mxCell>
        <mxCell id="Yw4l-M5PoHRuP-3W5IaQ-461" value="&lt;font style=&quot;font-size: 22px&quot;&gt;13600000003&lt;br&gt;银牌&lt;br&gt;&amp;nbsp;一级分成 0.3元&lt;/font&gt;" style="rounded=1;whiteSpace=wrap;html=1;fillColor=#FFFFFF;align=center;" parent="1" vertex="1">
          <mxGeometry x="1250.5" y="3280" width="275" height="100" as="geometry" />
        </mxCell>
        <mxCell id="Yw4l-M5PoHRuP-3W5IaQ-462" value="&lt;span style=&quot;font-size: 24px&quot;&gt;&lt;font color=&quot;#330000&quot;&gt;购买者&lt;/font&gt;&lt;/span&gt;" style="text;html=1;strokeColor=#9673a6;fillColor=#e1d5e7;align=center;verticalAlign=middle;whiteSpace=wrap;rounded=0;" parent="1" vertex="1">
          <mxGeometry x="906" y="3840" width="109" height="30" as="geometry" />
        </mxCell>
        <mxCell id="Yw4l-M5PoHRuP-3W5IaQ-463" value="&lt;font style=&quot;font-size: 24px&quot; color=&quot;#ffffff&quot;&gt;会员&lt;/font&gt;" style="text;html=1;strokeColor=none;fillColor=#FF6666;align=center;verticalAlign=middle;whiteSpace=wrap;rounded=0;" parent="1" vertex="1">
          <mxGeometry x="625.5" y="3800" width="60" height="30" as="geometry" />
        </mxCell>
        <mxCell id="Yw4l-M5PoHRuP-3W5IaQ-464" value="&lt;font style=&quot;font-size: 24px&quot; color=&quot;#ffffff&quot;&gt;会员&lt;/font&gt;" style="text;html=1;strokeColor=none;fillColor=#FF6666;align=center;verticalAlign=middle;whiteSpace=wrap;rounded=0;" parent="1" vertex="1">
          <mxGeometry x="495.5" y="3970" width="60" height="30" as="geometry" />
        </mxCell>
        <mxCell id="Yw4l-M5PoHRuP-3W5IaQ-465" value="&lt;font color=&quot;#ffffff&quot;&gt;&lt;span style=&quot;font-size: 24px&quot;&gt;专卖店&lt;/span&gt;&lt;/font&gt;" style="text;html=1;strokeColor=none;fillColor=#FF6666;align=center;verticalAlign=middle;whiteSpace=wrap;rounded=0;" parent="1" vertex="1">
          <mxGeometry x="610" y="3560" width="109.5" height="30" as="geometry" />
        </mxCell>
        <mxCell id="Yw4l-M5PoHRuP-3W5IaQ-467" value="&lt;font color=&quot;#ffffff&quot;&gt;&lt;span style=&quot;font-size: 24px&quot;&gt;专卖店&lt;/span&gt;&lt;/font&gt;" style="text;html=1;strokeColor=none;fillColor=#FF6666;align=center;verticalAlign=middle;whiteSpace=wrap;rounded=0;" parent="1" vertex="1">
          <mxGeometry x="478.75" y="3800" width="95.5" height="30" as="geometry" />
        </mxCell>
        <mxCell id="Yw4l-M5PoHRuP-3W5IaQ-468" value="&lt;font style=&quot;font-size: 22px&quot;&gt;13600000001&lt;br&gt;金牌&lt;br&gt;&amp;nbsp;团队分成 1 元&lt;/font&gt;" style="rounded=1;whiteSpace=wrap;html=1;fillColor=#FFFFFF;align=center;" parent="1" vertex="1">
          <mxGeometry x="1251" y="3390" width="275" height="100" as="geometry" />
        </mxCell>
        <mxCell id="Yw4l-M5PoHRuP-3W5IaQ-422" value="&lt;font color=&quot;#ffffff&quot;&gt;&lt;span style=&quot;font-size: 24px&quot;&gt;专卖店&lt;/span&gt;&lt;/font&gt;" style="text;html=1;strokeColor=none;fillColor=#FF6666;align=center;verticalAlign=middle;whiteSpace=wrap;rounded=0;" parent="1" vertex="1">
          <mxGeometry x="601.25" y="2760" width="109.5" height="30" as="geometry" />
        </mxCell>
        <mxCell id="Yw4l-M5PoHRuP-3W5IaQ-469" value="" style="edgeStyle=orthogonalEdgeStyle;rounded=0;orthogonalLoop=1;jettySize=auto;html=1;align=center;" parent="1" source="Yw4l-M5PoHRuP-3W5IaQ-403" target="Yw4l-M5PoHRuP-3W5IaQ-422" edge="1">
          <mxGeometry relative="1" as="geometry">
            <mxPoint x="655.5" y="2740" as="sourcePoint" />
            <mxPoint x="655.5" y="2910" as="targetPoint" />
          </mxGeometry>
        </mxCell>
        <mxCell id="Yw4l-M5PoHRuP-3W5IaQ-476" value="&lt;table border=&quot;1&quot; width=&quot;100%&quot; cellpadding=&quot;4&quot; style=&quot;width: 100% ; height: 100% ; border-collapse: collapse&quot;&gt;&lt;tbody&gt;&lt;tr style=&quot;background-color: #a7c942 ; color: #ffffff ; border: 1px solid #98bf21&quot;&gt;&lt;th&gt;&lt;span style=&quot;background-color: rgb(151 , 208 , 119)&quot;&gt;&lt;span style=&quot;font-weight: 400 ; white-space: normal&quot;&gt;星级名称/绑定等级&lt;/span&gt;&lt;br&gt;&lt;/span&gt;&lt;/th&gt;&lt;th&gt;&lt;span style=&quot;background-color: rgb(151 , 208 , 119)&quot;&gt;&lt;span style=&quot;font-weight: 400 ; white-space: normal&quot;&gt;一级分成比例&lt;/span&gt;&lt;br&gt;&lt;/span&gt;&lt;/th&gt;&lt;th&gt;&lt;span style=&quot;background-color: rgb(151 , 208 , 119)&quot;&gt;&lt;span style=&quot;font-weight: 400 ; white-space: normal&quot;&gt;团队分成比例&lt;/span&gt;&lt;br&gt;&lt;/span&gt;&lt;/th&gt;&lt;td&gt;&lt;span style=&quot;background-color: rgb(151 , 208 , 119)&quot;&gt;&lt;span style=&quot;white-space: normal&quot;&gt;团队管理比例&lt;/span&gt;&lt;br&gt;&lt;/span&gt;&lt;/td&gt;&lt;td&gt;&lt;span style=&quot;background-color: rgb(151 , 208 , 119)&quot;&gt;&lt;span style=&quot;white-space: normal&quot;&gt;达标条件&lt;/span&gt;&lt;br&gt;&lt;/span&gt;&lt;/td&gt;&lt;/tr&gt;&lt;tr style=&quot;border: 1px solid #98bf21&quot;&gt;&lt;td&gt;&lt;span style=&quot;color: rgb(102 , 102 , 102) ; background-color: rgb(249 , 249 , 249)&quot;&gt;银牌&amp;nbsp;&lt;/span&gt;&lt;span class=&quot;label label-primary&quot; style=&quot;box-sizing: border-box; list-style: none; display: inline-block; padding: 3px 8px; font-weight: 600; line-height: 1; color: rgb(255, 255, 255); vertical-align: baseline; border-radius: 2px; font-family: &amp;quot;open sans&amp;quot;; text-shadow: none; margin-bottom: 2px; background: rgb(68, 171, 247);&quot;&gt;会员&lt;/span&gt;&lt;span style=&quot;color: rgb(102 , 102 , 102) ; background-color: rgb(249 , 249 , 249)&quot;&gt;&amp;nbsp;&lt;/span&gt;&lt;span class=&quot;label label-success&quot; style=&quot;box-sizing: border-box; list-style: none; display: inline-block; padding: 3px 8px; font-weight: 600; line-height: 1; color: rgb(255, 255, 255); vertical-align: baseline; border-radius: 2px; font-family: &amp;quot;open sans&amp;quot;; text-shadow: none; margin-bottom: 2px; background: rgb(84, 201, 82);&quot;&gt;[默认]&lt;/span&gt;&lt;/td&gt;&lt;td&gt;&lt;span style=&quot;color: rgb(102 , 102 , 102) ; background-color: rgb(249 , 249 , 249)&quot;&gt;0.30元&lt;/span&gt;&lt;br&gt;&lt;/td&gt;&lt;td&gt;&lt;span style=&quot;color: rgb(102 , 102 , 102) ; background-color: rgb(249 , 249 , 249)&quot;&gt;无&lt;/span&gt;&lt;/td&gt;&lt;td&gt;&lt;span style=&quot;color: rgb(102 , 102 , 102) ; background-color: rgb(249 , 249 , 249)&quot;&gt;无&lt;/span&gt;&lt;br&gt;&lt;/td&gt;&lt;td&gt;&lt;span style=&quot;color: rgb(102 , 102 , 102) ; background-color: rgb(249 , 249 , 249)&quot;&gt;默认&lt;/span&gt;&lt;br&gt;&lt;/td&gt;&lt;/tr&gt;&lt;tr style=&quot;background-color: #eaf2d3 ; border: 1px solid #98bf21&quot;&gt;&lt;td&gt;&lt;span style=&quot;color: rgb(102 , 102 , 102) ; background-color: rgb(249 , 249 , 249)&quot;&gt;金牌&amp;nbsp;&lt;/span&gt;&lt;span class=&quot;label label-primary&quot; style=&quot;box-sizing: border-box; list-style: none; display: inline-block; padding: 3px 8px; font-weight: 600; line-height: 1; color: rgb(255, 255, 255); vertical-align: baseline; border-radius: 2px; font-family: &amp;quot;open sans&amp;quot;; text-shadow: none; margin-bottom: 2px; background: rgb(60, 155, 225);&quot;&gt;会员&lt;/span&gt;&lt;/td&gt;&lt;td&gt;&lt;span style=&quot;color: rgb(102 , 102 , 102) ; background-color: rgb(249 , 249 , 249)&quot;&gt;0.50元&lt;/span&gt;&lt;br&gt;&lt;/td&gt;&lt;td&gt;&lt;span style=&quot;color: rgb(102 , 102 , 102) ; background-color: rgb(249 , 249 , 249)&quot;&gt;无&lt;/span&gt;&lt;/td&gt;&lt;td&gt;&lt;span style=&quot;color: rgb(102 , 102 , 102) ; background-color: rgb(249 , 249 , 249)&quot;&gt;无&lt;/span&gt;&lt;br&gt;&lt;/td&gt;&lt;td&gt;&lt;span style=&quot;color: rgb(102 , 102 , 102) ; background-color: rgb(249 , 249 , 249)&quot;&gt;直推满2个会员&lt;/span&gt;&lt;br&gt;&lt;/td&gt;&lt;/tr&gt;&lt;tr style=&quot;border: 1px solid #98bf21&quot;&gt;&lt;td&gt;&lt;span style=&quot;color: rgb(102 , 102 , 102) ; background-color: rgb(255 , 255 , 255)&quot;&gt;银牌&amp;nbsp;&lt;/span&gt;&lt;span class=&quot;label label-primary&quot; style=&quot;box-sizing: border-box; list-style: none; display: inline-block; padding: 3px 8px; font-weight: 600; line-height: 1; color: rgb(255, 255, 255); vertical-align: baseline; border-radius: 2px; font-family: &amp;quot;open sans&amp;quot;; text-shadow: none; margin-bottom: 2px; background: rgb(68, 171, 247);&quot;&gt;专卖店 旗舰店&lt;/span&gt;&lt;span style=&quot;color: rgb(102 , 102 , 102) ; background-color: rgb(255 , 255 , 255)&quot;&gt;&amp;nbsp;&lt;/span&gt;&lt;span class=&quot;label label-success&quot; style=&quot;box-sizing: border-box; list-style: none; display: inline-block; padding: 3px 8px; font-weight: 600; line-height: 1; color: rgb(255, 255, 255); vertical-align: baseline; border-radius: 2px; font-family: &amp;quot;open sans&amp;quot;; text-shadow: none; margin-bottom: 2px; background: rgb(84, 201, 82);&quot;&gt;[默认]&lt;/span&gt;&lt;br&gt;&lt;/td&gt;&lt;td&gt;&lt;span style=&quot;color: rgb(102 , 102 , 102) ; background-color: rgb(249 , 249 , 249)&quot;&gt;0.60元&lt;/span&gt;&lt;br&gt;&lt;/td&gt;&lt;td&gt;&lt;span style=&quot;color: rgb(102 , 102 , 102) ; background-color: rgb(249 , 249 , 249)&quot;&gt;0.60元&lt;/span&gt;&lt;/td&gt;&lt;td&gt;&lt;span style=&quot;color: rgb(102 , 102 , 102) ; background-color: rgb(249 , 249 , 249)&quot;&gt;20.00%&lt;/span&gt;&lt;br&gt;&lt;/td&gt;&lt;td&gt;&lt;span style=&quot;color: rgb(102 , 102 , 102) ; background-color: rgb(249 , 249 , 249)&quot;&gt;默认&lt;/span&gt;&lt;br&gt;&lt;/td&gt;&lt;/tr&gt;&lt;tr style=&quot;background-color: #eaf2d3 ; border: 1px solid #98bf21&quot;&gt;&lt;td&gt;&lt;span style=&quot;color: rgb(102 , 102 , 102) ; background-color: rgb(249 , 249 , 249)&quot;&gt;金牌&amp;nbsp;&lt;/span&gt;&lt;span class=&quot;label label-primary&quot; style=&quot;box-sizing: border-box; list-style: none; display: inline-block; padding: 3px 8px; font-weight: 600; line-height: 1; color: rgb(255, 255, 255); vertical-align: baseline; border-radius: 2px; font-family: &amp;quot;open sans&amp;quot;; text-shadow: none; margin-bottom: 2px; background: rgb(60, 155, 225);&quot;&gt;专卖店 旗舰店&lt;/span&gt;&lt;br&gt;&lt;/td&gt;&lt;td&gt;&lt;span style=&quot;color: rgb(102 , 102 , 102) ; background-color: rgb(249 , 249 , 249)&quot;&gt;1.00元&lt;/span&gt;&lt;br&gt;&lt;/td&gt;&lt;td&gt;&lt;span style=&quot;color: rgb(102 , 102 , 102) ; background-color: rgb(249 , 249 , 249)&quot;&gt;1.00元&lt;/span&gt;&lt;br&gt;&lt;/td&gt;&lt;td&gt;&lt;span style=&quot;color: rgb(102 , 102 , 102) ; background-color: rgb(249 , 249 , 249)&quot;&gt;20.00%&lt;/span&gt;&lt;br&gt;&lt;/td&gt;&lt;td&gt;&lt;span style=&quot;color: rgb(102 , 102 , 102) ; background-color: rgb(249 , 249 , 249)&quot;&gt;直推满2个会员 且团队满3个会员&lt;/span&gt;&lt;br&gt;&lt;/td&gt;&lt;/tr&gt;&lt;/tbody&gt;&lt;/table&gt;" style="text;html=1;strokeColor=#c0c0c0;fillColor=#ffffff;overflow=fill;rounded=0;align=center;" parent="1" vertex="1">
          <mxGeometry x="413" y="-210" width="1094" height="200" as="geometry" />
        </mxCell>
        <mxCell id="8OWY9WzIKqOEVLSM1BfL-1" value="&lt;table border=&quot;1&quot; width=&quot;100%&quot; cellpadding=&quot;4&quot; style=&quot;width: 100% ; height: 100% ; border-collapse: collapse&quot;&gt;&lt;tbody&gt;&lt;tr style=&quot;background-color: #a7c942 ; color: #ffffff ; border: 1px solid #98bf21&quot;&gt;&lt;th&gt;&lt;span style=&quot;background-color: rgb(151 , 208 , 119)&quot;&gt;&lt;span style=&quot;font-weight: 400 ; white-space: normal&quot;&gt;星级名称/绑定等级&lt;/span&gt;&lt;br&gt;&lt;/span&gt;&lt;/th&gt;&lt;th&gt;&lt;span style=&quot;background-color: rgb(151 , 208 , 119)&quot;&gt;&lt;span style=&quot;font-weight: 400 ; white-space: normal&quot;&gt;一级分成比例&lt;/span&gt;&lt;br&gt;&lt;/span&gt;&lt;/th&gt;&lt;th&gt;&lt;span style=&quot;background-color: rgb(151 , 208 , 119)&quot;&gt;&lt;span style=&quot;font-weight: 400 ; white-space: normal&quot;&gt;团队分成比例&lt;/span&gt;&lt;br&gt;&lt;/span&gt;&lt;/th&gt;&lt;td&gt;&lt;span style=&quot;background-color: rgb(151 , 208 , 119)&quot;&gt;&lt;span style=&quot;white-space: normal&quot;&gt;团队管理比例&lt;/span&gt;&lt;br&gt;&lt;/span&gt;&lt;/td&gt;&lt;td&gt;&lt;span style=&quot;background-color: rgb(151 , 208 , 119)&quot;&gt;&lt;span style=&quot;white-space: normal&quot;&gt;达标条件&lt;/span&gt;&lt;br&gt;&lt;/span&gt;&lt;/td&gt;&lt;/tr&gt;&lt;tr style=&quot;border: 1px solid #98bf21&quot;&gt;&lt;td&gt;&lt;span style=&quot;color: rgb(102 , 102 , 102) ; background-color: rgb(249 , 249 , 249)&quot;&gt;银牌&amp;nbsp;&lt;/span&gt;&lt;span class=&quot;label label-primary&quot; style=&quot;box-sizing: border-box ; list-style: none ; display: inline-block ; padding: 3px 8px ; font-weight: 600 ; line-height: 1 ; color: rgb(255 , 255 , 255) ; vertical-align: baseline ; border-radius: 2px ; font-family: &amp;#34;open sans&amp;#34; ; text-shadow: none ; margin-bottom: 2px ; background: rgb(68 , 171 , 247)&quot;&gt;会员&lt;/span&gt;&lt;span style=&quot;color: rgb(102 , 102 , 102) ; background-color: rgb(249 , 249 , 249)&quot;&gt;&amp;nbsp;&lt;/span&gt;&lt;span class=&quot;label label-success&quot; style=&quot;box-sizing: border-box ; list-style: none ; display: inline-block ; padding: 3px 8px ; font-weight: 600 ; line-height: 1 ; color: rgb(255 , 255 , 255) ; vertical-align: baseline ; border-radius: 2px ; font-family: &amp;#34;open sans&amp;#34; ; text-shadow: none ; margin-bottom: 2px ; background: rgb(84 , 201 , 82)&quot;&gt;[默认]&lt;/span&gt;&lt;/td&gt;&lt;td&gt;&lt;span style=&quot;color: rgb(102 , 102 , 102) ; background-color: rgb(249 , 249 , 249)&quot;&gt;0.50元&lt;/span&gt;&lt;br&gt;&lt;/td&gt;&lt;td&gt;&lt;span style=&quot;color: rgb(102 , 102 , 102) ; background-color: rgb(249 , 249 , 249)&quot;&gt;无&lt;/span&gt;&lt;/td&gt;&lt;td&gt;&lt;span style=&quot;color: rgb(102 , 102 , 102) ; background-color: rgb(249 , 249 , 249)&quot;&gt;无&lt;/span&gt;&lt;br&gt;&lt;/td&gt;&lt;td&gt;&lt;span style=&quot;color: rgb(102 , 102 , 102) ; background-color: rgb(249 , 249 , 249)&quot;&gt;默认&lt;/span&gt;&lt;br&gt;&lt;/td&gt;&lt;/tr&gt;&lt;tr style=&quot;background-color: #eaf2d3 ; border: 1px solid #98bf21&quot;&gt;&lt;td&gt;&lt;span style=&quot;color: rgb(102 , 102 , 102) ; background-color: rgb(249 , 249 , 249)&quot;&gt;金牌&amp;nbsp;&lt;/span&gt;&lt;span class=&quot;label label-primary&quot; style=&quot;box-sizing: border-box ; list-style: none ; display: inline-block ; padding: 3px 8px ; font-weight: 600 ; line-height: 1 ; color: rgb(255 , 255 , 255) ; vertical-align: baseline ; border-radius: 2px ; font-family: &amp;#34;open sans&amp;#34; ; text-shadow: none ; margin-bottom: 2px ; background: rgb(60 , 155 , 225)&quot;&gt;会员&lt;/span&gt;&lt;/td&gt;&lt;td&gt;&lt;span style=&quot;color: rgb(102 , 102 , 102) ; background-color: rgb(249 , 249 , 249)&quot;&gt;0.70元&lt;/span&gt;&lt;br&gt;&lt;/td&gt;&lt;td&gt;&lt;span style=&quot;color: rgb(102 , 102 , 102) ; background-color: rgb(249 , 249 , 249)&quot;&gt;无&lt;/span&gt;&lt;/td&gt;&lt;td&gt;&lt;span style=&quot;color: rgb(102 , 102 , 102) ; background-color: rgb(249 , 249 , 249)&quot;&gt;无&lt;/span&gt;&lt;br&gt;&lt;/td&gt;&lt;td&gt;&lt;span style=&quot;color: rgb(102 , 102 , 102) ; background-color: rgb(249 , 249 , 249)&quot;&gt;直推满2个会员&lt;/span&gt;&lt;br&gt;&lt;/td&gt;&lt;/tr&gt;&lt;tr style=&quot;border: 1px solid #98bf21&quot;&gt;&lt;td&gt;&lt;span style=&quot;color: rgb(102 , 102 , 102) ; background-color: rgb(255 , 255 , 255)&quot;&gt;银牌&amp;nbsp;&lt;/span&gt;&lt;span class=&quot;label label-primary&quot; style=&quot;box-sizing: border-box ; list-style: none ; display: inline-block ; padding: 3px 8px ; font-weight: 600 ; line-height: 1 ; color: rgb(255 , 255 , 255) ; vertical-align: baseline ; border-radius: 2px ; font-family: &amp;#34;open sans&amp;#34; ; text-shadow: none ; margin-bottom: 2px ; background: rgb(68 , 171 , 247)&quot;&gt;专卖店 旗舰店&lt;/span&gt;&lt;span style=&quot;color: rgb(102 , 102 , 102) ; background-color: rgb(255 , 255 , 255)&quot;&gt;&amp;nbsp;&lt;/span&gt;&lt;span class=&quot;label label-success&quot; style=&quot;box-sizing: border-box ; list-style: none ; display: inline-block ; padding: 3px 8px ; font-weight: 600 ; line-height: 1 ; color: rgb(255 , 255 , 255) ; vertical-align: baseline ; border-radius: 2px ; font-family: &amp;#34;open sans&amp;#34; ; text-shadow: none ; margin-bottom: 2px ; background: rgb(84 , 201 , 82)&quot;&gt;[默认]&lt;/span&gt;&lt;br&gt;&lt;/td&gt;&lt;td&gt;&lt;span style=&quot;color: rgb(102 , 102 , 102) ; background-color: rgb(249 , 249 , 249)&quot;&gt;0.80元&lt;/span&gt;&lt;br&gt;&lt;/td&gt;&lt;td&gt;&lt;span style=&quot;color: rgb(102 , 102 , 102) ; background-color: rgb(249 , 249 , 249)&quot;&gt;0.90元&lt;/span&gt;&lt;/td&gt;&lt;td&gt;&lt;span style=&quot;color: rgb(102 , 102 , 102) ; background-color: rgb(249 , 249 , 249)&quot;&gt;10.00%&lt;/span&gt;&lt;br&gt;&lt;/td&gt;&lt;td&gt;&lt;span style=&quot;color: rgb(102 , 102 , 102) ; background-color: rgb(249 , 249 , 249)&quot;&gt;默认&lt;/span&gt;&lt;br&gt;&lt;/td&gt;&lt;/tr&gt;&lt;tr style=&quot;background-color: #eaf2d3 ; border: 1px solid #98bf21&quot;&gt;&lt;td&gt;&lt;span style=&quot;color: rgb(102 , 102 , 102) ; background-color: rgb(249 , 249 , 249)&quot;&gt;金牌&amp;nbsp;&lt;/span&gt;&lt;span class=&quot;label label-primary&quot; style=&quot;box-sizing: border-box ; list-style: none ; display: inline-block ; padding: 3px 8px ; font-weight: 600 ; line-height: 1 ; color: rgb(255 , 255 , 255) ; vertical-align: baseline ; border-radius: 2px ; font-family: &amp;#34;open sans&amp;#34; ; text-shadow: none ; margin-bottom: 2px ; background: rgb(60 , 155 , 225)&quot;&gt;专卖店 旗舰店&lt;/span&gt;&lt;br&gt;&lt;/td&gt;&lt;td&gt;&lt;span style=&quot;color: rgb(102 , 102 , 102) ; background-color: rgb(249 , 249 , 249)&quot;&gt;1.00元&lt;/span&gt;&lt;br&gt;&lt;/td&gt;&lt;td&gt;&lt;span style=&quot;color: rgb(102 , 102 , 102) ; background-color: rgb(249 , 249 , 249)&quot;&gt;1.20元&lt;/span&gt;&lt;br&gt;&lt;/td&gt;&lt;td&gt;&lt;span style=&quot;color: rgb(102 , 102 , 102) ; background-color: rgb(249 , 249 , 249)&quot;&gt;20.00%&lt;/span&gt;&lt;br&gt;&lt;/td&gt;&lt;td&gt;&lt;span style=&quot;color: rgb(102 , 102 , 102) ; background-color: rgb(249 , 249 , 249)&quot;&gt;直推满2个会员 且团队满3个会员&lt;/span&gt;&lt;br&gt;&lt;/td&gt;&lt;/tr&gt;&lt;/tbody&gt;&lt;/table&gt;" style="text;html=1;strokeColor=#c0c0c0;fillColor=#ffffff;overflow=fill;rounded=0;align=center;" parent="1" vertex="1">
          <mxGeometry x="413" y="4120" width="1094" height="200" as="geometry" />
        </mxCell>
        <mxCell id="8OWY9WzIKqOEVLSM1BfL-2" value="" style="edgeStyle=orthogonalEdgeStyle;rounded=0;orthogonalLoop=1;jettySize=auto;html=1;align=center;" parent="1" source="8OWY9WzIKqOEVLSM1BfL-5" target="8OWY9WzIKqOEVLSM1BfL-17" edge="1">
          <mxGeometry relative="1" as="geometry" />
        </mxCell>
        <mxCell id="8OWY9WzIKqOEVLSM1BfL-3" value="" style="edgeStyle=orthogonalEdgeStyle;rounded=0;orthogonalLoop=1;jettySize=auto;html=1;align=center;" parent="1" source="8OWY9WzIKqOEVLSM1BfL-5" target="8OWY9WzIKqOEVLSM1BfL-13" edge="1">
          <mxGeometry relative="1" as="geometry" />
        </mxCell>
        <mxCell id="8OWY9WzIKqOEVLSM1BfL-4" value="" style="edgeStyle=orthogonalEdgeStyle;rounded=0;orthogonalLoop=1;jettySize=auto;html=1;align=center;" parent="1" source="8OWY9WzIKqOEVLSM1BfL-5" target="8OWY9WzIKqOEVLSM1BfL-8" edge="1">
          <mxGeometry relative="1" as="geometry" />
        </mxCell>
        <mxCell id="8OWY9WzIKqOEVLSM1BfL-5" value="13600000001" style="shape=umlActor;verticalLabelPosition=bottom;labelBackgroundColor=#ffffff;verticalAlign=top;html=1;outlineConnect=0;align=center;" parent="1" vertex="1">
          <mxGeometry x="945" y="4370" width="30" height="60" as="geometry" />
        </mxCell>
        <mxCell id="8OWY9WzIKqOEVLSM1BfL-6" value="" style="edgeStyle=orthogonalEdgeStyle;rounded=0;orthogonalLoop=1;jettySize=auto;html=1;align=center;" parent="1" source="8OWY9WzIKqOEVLSM1BfL-8" target="8OWY9WzIKqOEVLSM1BfL-10" edge="1">
          <mxGeometry relative="1" as="geometry" />
        </mxCell>
        <mxCell id="8OWY9WzIKqOEVLSM1BfL-7" value="" style="edgeStyle=orthogonalEdgeStyle;rounded=0;orthogonalLoop=1;jettySize=auto;html=1;align=center;" parent="1" source="8OWY9WzIKqOEVLSM1BfL-8" target="8OWY9WzIKqOEVLSM1BfL-9" edge="1">
          <mxGeometry relative="1" as="geometry" />
        </mxCell>
        <mxCell id="8OWY9WzIKqOEVLSM1BfL-8" value="13600000011" style="shape=umlActor;verticalLabelPosition=bottom;labelBackgroundColor=#ffffff;verticalAlign=top;html=1;outlineConnect=0;align=center;" parent="1" vertex="1">
          <mxGeometry x="1206" y="4540" width="30" height="60" as="geometry" />
        </mxCell>
        <mxCell id="8OWY9WzIKqOEVLSM1BfL-9" value="13600000006" style="shape=umlActor;verticalLabelPosition=bottom;labelBackgroundColor=#ffffff;verticalAlign=top;html=1;outlineConnect=0;align=center;" parent="1" vertex="1">
          <mxGeometry x="1310" y="4770" width="30" height="60" as="geometry" />
        </mxCell>
        <mxCell id="8OWY9WzIKqOEVLSM1BfL-10" value="13600000005" style="shape=umlActor;verticalLabelPosition=bottom;labelBackgroundColor=#ffffff;verticalAlign=top;html=1;outlineConnect=0;align=center;" parent="1" vertex="1">
          <mxGeometry x="1108" y="4770" width="30" height="60" as="geometry" />
        </mxCell>
        <mxCell id="8OWY9WzIKqOEVLSM1BfL-11" value="13600000007" style="shape=umlActor;verticalLabelPosition=bottom;labelBackgroundColor=#ffffff;verticalAlign=top;html=1;outlineConnect=0;align=center;" parent="1" vertex="1">
          <mxGeometry x="945" y="4770" width="30" height="60" as="geometry" />
        </mxCell>
        <mxCell id="8OWY9WzIKqOEVLSM1BfL-12" value="" style="edgeStyle=orthogonalEdgeStyle;rounded=0;orthogonalLoop=1;jettySize=auto;html=1;align=center;" parent="1" source="8OWY9WzIKqOEVLSM1BfL-13" target="8OWY9WzIKqOEVLSM1BfL-11" edge="1">
          <mxGeometry relative="1" as="geometry" />
        </mxCell>
        <mxCell id="8OWY9WzIKqOEVLSM1BfL-13" value="13600000003" style="shape=umlActor;verticalLabelPosition=bottom;labelBackgroundColor=#ffffff;verticalAlign=top;html=1;outlineConnect=0;align=center;" parent="1" vertex="1">
          <mxGeometry x="945" y="4540" width="30" height="60" as="geometry" />
        </mxCell>
        <mxCell id="8OWY9WzIKqOEVLSM1BfL-14" value="" style="edgeStyle=orthogonalEdgeStyle;rounded=0;orthogonalLoop=1;jettySize=auto;html=1;align=center;" parent="1" source="8OWY9WzIKqOEVLSM1BfL-17" target="8OWY9WzIKqOEVLSM1BfL-22" edge="1">
          <mxGeometry relative="1" as="geometry" />
        </mxCell>
        <mxCell id="8OWY9WzIKqOEVLSM1BfL-15" value="" style="edgeStyle=orthogonalEdgeStyle;rounded=0;orthogonalLoop=1;jettySize=auto;html=1;align=center;" parent="1" source="8OWY9WzIKqOEVLSM1BfL-17" target="8OWY9WzIKqOEVLSM1BfL-20" edge="1">
          <mxGeometry relative="1" as="geometry" />
        </mxCell>
        <mxCell id="8OWY9WzIKqOEVLSM1BfL-16" value="" style="edgeStyle=orthogonalEdgeStyle;rounded=0;orthogonalLoop=1;jettySize=auto;html=1;align=center;" parent="1" source="8OWY9WzIKqOEVLSM1BfL-17" target="8OWY9WzIKqOEVLSM1BfL-18" edge="1">
          <mxGeometry relative="1" as="geometry" />
        </mxCell>
        <mxCell id="8OWY9WzIKqOEVLSM1BfL-17" value="13600000002" style="shape=umlActor;verticalLabelPosition=bottom;labelBackgroundColor=#ffffff;verticalAlign=top;html=1;outlineConnect=0;align=center;" parent="1" vertex="1">
          <mxGeometry x="640.5" y="4540" width="30" height="60" as="geometry" />
        </mxCell>
        <mxCell id="8OWY9WzIKqOEVLSM1BfL-18" value="13600000009" style="shape=umlActor;verticalLabelPosition=bottom;labelBackgroundColor=#ffffff;verticalAlign=top;html=1;outlineConnect=0;align=center;" parent="1" vertex="1">
          <mxGeometry x="640.5" y="4770" width="30" height="60" as="geometry" />
        </mxCell>
        <mxCell id="8OWY9WzIKqOEVLSM1BfL-19" style="edgeStyle=orthogonalEdgeStyle;rounded=0;orthogonalLoop=1;jettySize=auto;html=1;align=center;" parent="1" source="8OWY9WzIKqOEVLSM1BfL-20" target="8OWY9WzIKqOEVLSM1BfL-21" edge="1">
          <mxGeometry relative="1" as="geometry" />
        </mxCell>
        <mxCell id="8OWY9WzIKqOEVLSM1BfL-20" value="13600000008" style="shape=umlActor;verticalLabelPosition=bottom;labelBackgroundColor=#ffffff;verticalAlign=top;html=1;outlineConnect=0;align=center;" parent="1" vertex="1">
          <mxGeometry x="510.5" y="4770" width="30" height="60" as="geometry" />
        </mxCell>
        <mxCell id="8OWY9WzIKqOEVLSM1BfL-21" value="13600000004" style="shape=umlActor;verticalLabelPosition=bottom;labelBackgroundColor=#ffffff;verticalAlign=top;html=1;outlineConnect=0;align=center;" parent="1" vertex="1">
          <mxGeometry x="511.5" y="4940" width="30" height="60" as="geometry" />
        </mxCell>
        <mxCell id="8OWY9WzIKqOEVLSM1BfL-22" value="13600000010" style="shape=umlActor;verticalLabelPosition=bottom;labelBackgroundColor=#ffffff;verticalAlign=top;html=1;outlineConnect=0;align=center;" parent="1" vertex="1">
          <mxGeometry x="760" y="4770" width="30" height="60" as="geometry" />
        </mxCell>
        <mxCell id="8OWY9WzIKqOEVLSM1BfL-23" value="&lt;font color=&quot;#ffffff&quot;&gt;&lt;span style=&quot;font-size: 24px&quot;&gt;专卖店&lt;/span&gt;&lt;/font&gt;" style="text;html=1;strokeColor=none;fillColor=#FF6666;align=center;verticalAlign=middle;whiteSpace=wrap;rounded=0;" parent="1" vertex="1">
          <mxGeometry x="905.25" y="4450" width="109.5" height="30" as="geometry" />
        </mxCell>
        <mxCell id="8OWY9WzIKqOEVLSM1BfL-24" value="&lt;font style=&quot;font-size: 24px&quot; color=&quot;#ffffff&quot;&gt;会员&lt;/font&gt;" style="text;html=1;strokeColor=none;fillColor=#FF6666;align=center;verticalAlign=middle;whiteSpace=wrap;rounded=0;" parent="1" vertex="1">
          <mxGeometry x="930" y="4620" width="60" height="30" as="geometry" />
        </mxCell>
        <mxCell id="8OWY9WzIKqOEVLSM1BfL-25" value="&lt;font style=&quot;font-size: 24px&quot; color=&quot;#ffffff&quot;&gt;会员&lt;/font&gt;" style="text;html=1;strokeColor=none;fillColor=#FF6666;align=center;verticalAlign=middle;whiteSpace=wrap;rounded=0;" parent="1" vertex="1">
          <mxGeometry x="1093.5" y="4860" width="60" height="30" as="geometry" />
        </mxCell>
        <mxCell id="8OWY9WzIKqOEVLSM1BfL-26" value="&lt;font style=&quot;font-size: 24px&quot; color=&quot;#ffffff&quot;&gt;会员&lt;/font&gt;" style="text;html=1;strokeColor=none;fillColor=#FF6666;align=center;verticalAlign=middle;whiteSpace=wrap;rounded=0;" parent="1" vertex="1">
          <mxGeometry x="1295" y="4860" width="60" height="30" as="geometry" />
        </mxCell>
        <mxCell id="8OWY9WzIKqOEVLSM1BfL-27" value="&lt;font style=&quot;font-size: 24px&quot; color=&quot;#ffffff&quot;&gt;会员&lt;/font&gt;" style="text;html=1;strokeColor=none;fillColor=#FF6666;align=center;verticalAlign=middle;whiteSpace=wrap;rounded=0;" parent="1" vertex="1">
          <mxGeometry x="930.5" y="4860" width="60" height="30" as="geometry" />
        </mxCell>
        <mxCell id="8OWY9WzIKqOEVLSM1BfL-28" value="&lt;font style=&quot;font-size: 24px&quot; color=&quot;#ffffff&quot;&gt;会员&lt;/font&gt;" style="text;html=1;strokeColor=none;fillColor=#FF6666;align=center;verticalAlign=middle;whiteSpace=wrap;rounded=0;" parent="1" vertex="1">
          <mxGeometry x="745.5" y="4860" width="60" height="30" as="geometry" />
        </mxCell>
        <mxCell id="8OWY9WzIKqOEVLSM1BfL-29" value="&lt;font style=&quot;font-size: 24px&quot; color=&quot;#ffffff&quot;&gt;会员&lt;/font&gt;" style="text;html=1;strokeColor=none;fillColor=#FF6666;align=center;verticalAlign=middle;whiteSpace=wrap;rounded=0;" parent="1" vertex="1">
          <mxGeometry x="1191" y="4620" width="60" height="30" as="geometry" />
        </mxCell>
        <mxCell id="8OWY9WzIKqOEVLSM1BfL-30" value="&lt;font style=&quot;font-size: 22px&quot;&gt;13600000003&lt;br&gt;银牌&lt;br&gt;&amp;nbsp;一级分成 0.5元&lt;/font&gt;" style="rounded=1;whiteSpace=wrap;html=1;fillColor=#FFFFFF;align=center;" parent="1" vertex="1">
          <mxGeometry x="1250.5" y="4340" width="275" height="100" as="geometry" />
        </mxCell>
        <mxCell id="8OWY9WzIKqOEVLSM1BfL-31" value="&lt;span style=&quot;font-size: 24px&quot;&gt;&lt;font color=&quot;#330000&quot;&gt;购买者&lt;/font&gt;&lt;/span&gt;" style="text;html=1;strokeColor=#9673a6;fillColor=#e1d5e7;align=center;verticalAlign=middle;whiteSpace=wrap;rounded=0;" parent="1" vertex="1">
          <mxGeometry x="906" y="4900" width="109" height="30" as="geometry" />
        </mxCell>
        <mxCell id="8OWY9WzIKqOEVLSM1BfL-32" value="&lt;font style=&quot;font-size: 24px&quot; color=&quot;#ffffff&quot;&gt;会员&lt;/font&gt;" style="text;html=1;strokeColor=none;fillColor=#FF6666;align=center;verticalAlign=middle;whiteSpace=wrap;rounded=0;" parent="1" vertex="1">
          <mxGeometry x="625.5" y="4860" width="60" height="30" as="geometry" />
        </mxCell>
        <mxCell id="8OWY9WzIKqOEVLSM1BfL-33" value="&lt;font style=&quot;font-size: 24px&quot; color=&quot;#ffffff&quot;&gt;会员&lt;/font&gt;" style="text;html=1;strokeColor=none;fillColor=#FF6666;align=center;verticalAlign=middle;whiteSpace=wrap;rounded=0;" parent="1" vertex="1">
          <mxGeometry x="495.5" y="5030" width="60" height="30" as="geometry" />
        </mxCell>
        <mxCell id="8OWY9WzIKqOEVLSM1BfL-34" value="&lt;font color=&quot;#ffffff&quot;&gt;&lt;span style=&quot;font-size: 24px&quot;&gt;专卖店&lt;/span&gt;&lt;/font&gt;" style="text;html=1;strokeColor=none;fillColor=#FF6666;align=center;verticalAlign=middle;whiteSpace=wrap;rounded=0;" parent="1" vertex="1">
          <mxGeometry x="610" y="4620" width="109.5" height="30" as="geometry" />
        </mxCell>
        <mxCell id="8OWY9WzIKqOEVLSM1BfL-35" value="&lt;font color=&quot;#ffffff&quot;&gt;&lt;span style=&quot;font-size: 24px&quot;&gt;专卖店&lt;/span&gt;&lt;/font&gt;" style="text;html=1;strokeColor=none;fillColor=#FF6666;align=center;verticalAlign=middle;whiteSpace=wrap;rounded=0;" parent="1" vertex="1">
          <mxGeometry x="478.75" y="4860" width="95.5" height="30" as="geometry" />
        </mxCell>
        <mxCell id="8OWY9WzIKqOEVLSM1BfL-36" value="&lt;font style=&quot;font-size: 22px&quot;&gt;13600000001&lt;br&gt;金牌&lt;br&gt;&amp;nbsp;团队分成 1.2 元&lt;/font&gt;" style="rounded=1;whiteSpace=wrap;html=1;fillColor=#FFFFFF;align=center;" parent="1" vertex="1">
          <mxGeometry x="1251" y="4450" width="275" height="100" as="geometry" />
        </mxCell>
        <mxCell id="8OWY9WzIKqOEVLSM1BfL-37" value="" style="edgeStyle=orthogonalEdgeStyle;rounded=0;orthogonalLoop=1;jettySize=auto;html=1;align=center;" parent="1" source="8OWY9WzIKqOEVLSM1BfL-40" target="8OWY9WzIKqOEVLSM1BfL-52" edge="1">
          <mxGeometry relative="1" as="geometry" />
        </mxCell>
        <mxCell id="8OWY9WzIKqOEVLSM1BfL-38" value="" style="edgeStyle=orthogonalEdgeStyle;rounded=0;orthogonalLoop=1;jettySize=auto;html=1;align=center;" parent="1" source="8OWY9WzIKqOEVLSM1BfL-40" target="8OWY9WzIKqOEVLSM1BfL-48" edge="1">
          <mxGeometry relative="1" as="geometry" />
        </mxCell>
        <mxCell id="8OWY9WzIKqOEVLSM1BfL-39" value="" style="edgeStyle=orthogonalEdgeStyle;rounded=0;orthogonalLoop=1;jettySize=auto;html=1;align=center;" parent="1" source="8OWY9WzIKqOEVLSM1BfL-40" target="8OWY9WzIKqOEVLSM1BfL-43" edge="1">
          <mxGeometry relative="1" as="geometry" />
        </mxCell>
        <mxCell id="8OWY9WzIKqOEVLSM1BfL-40" value="13600000001" style="shape=umlActor;verticalLabelPosition=bottom;labelBackgroundColor=#ffffff;verticalAlign=top;html=1;outlineConnect=0;align=center;" parent="1" vertex="1">
          <mxGeometry x="951.75" y="5150" width="30" height="60" as="geometry" />
        </mxCell>
        <mxCell id="8OWY9WzIKqOEVLSM1BfL-41" value="" style="edgeStyle=orthogonalEdgeStyle;rounded=0;orthogonalLoop=1;jettySize=auto;html=1;align=center;" parent="1" source="8OWY9WzIKqOEVLSM1BfL-43" target="8OWY9WzIKqOEVLSM1BfL-45" edge="1">
          <mxGeometry relative="1" as="geometry" />
        </mxCell>
        <mxCell id="8OWY9WzIKqOEVLSM1BfL-42" value="" style="edgeStyle=orthogonalEdgeStyle;rounded=0;orthogonalLoop=1;jettySize=auto;html=1;align=center;" parent="1" source="8OWY9WzIKqOEVLSM1BfL-43" target="8OWY9WzIKqOEVLSM1BfL-44" edge="1">
          <mxGeometry relative="1" as="geometry" />
        </mxCell>
        <mxCell id="8OWY9WzIKqOEVLSM1BfL-43" value="13600000011" style="shape=umlActor;verticalLabelPosition=bottom;labelBackgroundColor=#ffffff;verticalAlign=top;html=1;outlineConnect=0;align=center;" parent="1" vertex="1">
          <mxGeometry x="1212.25" y="5320" width="30" height="60" as="geometry" />
        </mxCell>
        <mxCell id="8OWY9WzIKqOEVLSM1BfL-44" value="13600000006" style="shape=umlActor;verticalLabelPosition=bottom;labelBackgroundColor=#ffffff;verticalAlign=top;html=1;outlineConnect=0;align=center;" parent="1" vertex="1">
          <mxGeometry x="1316.75" y="5550" width="30" height="60" as="geometry" />
        </mxCell>
        <mxCell id="8OWY9WzIKqOEVLSM1BfL-45" value="13600000005" style="shape=umlActor;verticalLabelPosition=bottom;labelBackgroundColor=#ffffff;verticalAlign=top;html=1;outlineConnect=0;align=center;" parent="1" vertex="1">
          <mxGeometry x="1114.75" y="5550" width="30" height="60" as="geometry" />
        </mxCell>
        <mxCell id="8OWY9WzIKqOEVLSM1BfL-46" value="13600000007" style="shape=umlActor;verticalLabelPosition=bottom;labelBackgroundColor=#ffffff;verticalAlign=top;html=1;outlineConnect=0;align=center;" parent="1" vertex="1">
          <mxGeometry x="951.75" y="5550" width="30" height="60" as="geometry" />
        </mxCell>
        <mxCell id="8OWY9WzIKqOEVLSM1BfL-47" value="" style="edgeStyle=orthogonalEdgeStyle;rounded=0;orthogonalLoop=1;jettySize=auto;html=1;align=center;" parent="1" source="8OWY9WzIKqOEVLSM1BfL-48" target="8OWY9WzIKqOEVLSM1BfL-46" edge="1">
          <mxGeometry relative="1" as="geometry" />
        </mxCell>
        <mxCell id="8OWY9WzIKqOEVLSM1BfL-48" value="13600000003" style="shape=umlActor;verticalLabelPosition=bottom;labelBackgroundColor=#ffffff;verticalAlign=top;html=1;outlineConnect=0;align=center;" parent="1" vertex="1">
          <mxGeometry x="951.75" y="5320" width="30" height="60" as="geometry" />
        </mxCell>
        <mxCell id="8OWY9WzIKqOEVLSM1BfL-49" value="" style="edgeStyle=orthogonalEdgeStyle;rounded=0;orthogonalLoop=1;jettySize=auto;html=1;align=center;" parent="1" source="8OWY9WzIKqOEVLSM1BfL-52" target="8OWY9WzIKqOEVLSM1BfL-57" edge="1">
          <mxGeometry relative="1" as="geometry" />
        </mxCell>
        <mxCell id="8OWY9WzIKqOEVLSM1BfL-50" value="" style="edgeStyle=orthogonalEdgeStyle;rounded=0;orthogonalLoop=1;jettySize=auto;html=1;align=center;" parent="1" source="8OWY9WzIKqOEVLSM1BfL-52" target="8OWY9WzIKqOEVLSM1BfL-55" edge="1">
          <mxGeometry relative="1" as="geometry" />
        </mxCell>
        <mxCell id="8OWY9WzIKqOEVLSM1BfL-51" value="" style="edgeStyle=orthogonalEdgeStyle;rounded=0;orthogonalLoop=1;jettySize=auto;html=1;align=center;" parent="1" source="8OWY9WzIKqOEVLSM1BfL-71" target="8OWY9WzIKqOEVLSM1BfL-53" edge="1">
          <mxGeometry relative="1" as="geometry" />
        </mxCell>
        <mxCell id="8OWY9WzIKqOEVLSM1BfL-76" value="" style="edgeStyle=orthogonalEdgeStyle;rounded=0;orthogonalLoop=1;jettySize=auto;html=1;align=center;entryX=0.5;entryY=0;entryDx=0;entryDy=0;entryPerimeter=0;" parent="1" source="8OWY9WzIKqOEVLSM1BfL-52" target="8OWY9WzIKqOEVLSM1BfL-75" edge="1">
          <mxGeometry relative="1" as="geometry">
            <mxPoint x="400" y="5550" as="targetPoint" />
          </mxGeometry>
        </mxCell>
        <mxCell id="8OWY9WzIKqOEVLSM1BfL-78" value="" style="edgeStyle=orthogonalEdgeStyle;rounded=0;orthogonalLoop=1;jettySize=auto;html=1;align=center;" parent="1" source="8OWY9WzIKqOEVLSM1BfL-52" target="8OWY9WzIKqOEVLSM1BfL-77" edge="1">
          <mxGeometry relative="1" as="geometry" />
        </mxCell>
        <mxCell id="8OWY9WzIKqOEVLSM1BfL-52" value="13600000002" style="shape=umlActor;verticalLabelPosition=bottom;labelBackgroundColor=#ffffff;verticalAlign=top;html=1;outlineConnect=0;align=center;" parent="1" vertex="1">
          <mxGeometry x="647.25" y="5320" width="30" height="60" as="geometry" />
        </mxCell>
        <mxCell id="8OWY9WzIKqOEVLSM1BfL-77" value="13600000012" style="shape=umlActor;verticalLabelPosition=bottom;labelBackgroundColor=#ffffff;verticalAlign=top;html=1;outlineConnect=0;align=center;" parent="1" vertex="1">
          <mxGeometry x="420" y="5550" width="30" height="60" as="geometry" />
        </mxCell>
        <mxCell id="8OWY9WzIKqOEVLSM1BfL-75" value="13600000013" style="shape=umlActor;verticalLabelPosition=bottom;labelBackgroundColor=#ffffff;verticalAlign=top;html=1;outlineConnect=0;align=center;" parent="1" vertex="1">
          <mxGeometry x="830" y="5550" width="30" height="60" as="geometry" />
        </mxCell>
        <mxCell id="8OWY9WzIKqOEVLSM1BfL-53" value="13600000009" style="shape=umlActor;verticalLabelPosition=bottom;labelBackgroundColor=#ffffff;verticalAlign=top;html=1;outlineConnect=0;align=center;" parent="1" vertex="1">
          <mxGeometry x="647.25" y="5550" width="30" height="60" as="geometry" />
        </mxCell>
        <mxCell id="8OWY9WzIKqOEVLSM1BfL-54" style="edgeStyle=orthogonalEdgeStyle;rounded=0;orthogonalLoop=1;jettySize=auto;html=1;align=center;" parent="1" source="8OWY9WzIKqOEVLSM1BfL-70" target="8OWY9WzIKqOEVLSM1BfL-56" edge="1">
          <mxGeometry relative="1" as="geometry" />
        </mxCell>
        <mxCell id="8OWY9WzIKqOEVLSM1BfL-55" value="13600000008" style="shape=umlActor;verticalLabelPosition=bottom;labelBackgroundColor=#ffffff;verticalAlign=top;html=1;outlineConnect=0;align=center;" parent="1" vertex="1">
          <mxGeometry x="548.25" y="5550" width="30" height="60" as="geometry" />
        </mxCell>
        <mxCell id="8OWY9WzIKqOEVLSM1BfL-56" value="13600000004" style="shape=umlActor;verticalLabelPosition=bottom;labelBackgroundColor=#ffffff;verticalAlign=top;html=1;outlineConnect=0;align=center;" parent="1" vertex="1">
          <mxGeometry x="551" y="5730" width="30" height="60" as="geometry" />
        </mxCell>
        <mxCell id="8OWY9WzIKqOEVLSM1BfL-57" value="13600000010" style="shape=umlActor;verticalLabelPosition=bottom;labelBackgroundColor=#ffffff;verticalAlign=top;html=1;outlineConnect=0;align=center;" parent="1" vertex="1">
          <mxGeometry x="745.5" y="5550" width="30" height="60" as="geometry" />
        </mxCell>
        <mxCell id="8OWY9WzIKqOEVLSM1BfL-58" value="&lt;font color=&quot;#ffffff&quot;&gt;&lt;span style=&quot;font-size: 24px&quot;&gt;专卖店&lt;/span&gt;&lt;/font&gt;" style="text;html=1;strokeColor=none;fillColor=#FF6666;align=center;verticalAlign=middle;whiteSpace=wrap;rounded=0;" parent="1" vertex="1">
          <mxGeometry x="912" y="5230" width="109.5" height="30" as="geometry" />
        </mxCell>
        <mxCell id="8OWY9WzIKqOEVLSM1BfL-59" value="&lt;font style=&quot;font-size: 24px&quot; color=&quot;#ffffff&quot;&gt;会员&lt;/font&gt;" style="text;html=1;strokeColor=none;fillColor=#FF6666;align=center;verticalAlign=middle;whiteSpace=wrap;rounded=0;" parent="1" vertex="1">
          <mxGeometry x="936.75" y="5400" width="60" height="30" as="geometry" />
        </mxCell>
        <mxCell id="8OWY9WzIKqOEVLSM1BfL-60" value="&lt;font style=&quot;font-size: 24px&quot; color=&quot;#ffffff&quot;&gt;会员&lt;/font&gt;" style="text;html=1;strokeColor=none;fillColor=#FF6666;align=center;verticalAlign=middle;whiteSpace=wrap;rounded=0;" parent="1" vertex="1">
          <mxGeometry x="1100.25" y="5640" width="60" height="30" as="geometry" />
        </mxCell>
        <mxCell id="8OWY9WzIKqOEVLSM1BfL-61" value="&lt;font style=&quot;font-size: 24px&quot; color=&quot;#ffffff&quot;&gt;会员&lt;/font&gt;" style="text;html=1;strokeColor=none;fillColor=#FF6666;align=center;verticalAlign=middle;whiteSpace=wrap;rounded=0;" parent="1" vertex="1">
          <mxGeometry x="1301.75" y="5640" width="60" height="30" as="geometry" />
        </mxCell>
        <mxCell id="8OWY9WzIKqOEVLSM1BfL-62" value="&lt;font style=&quot;font-size: 24px&quot; color=&quot;#ffffff&quot;&gt;会员&lt;/font&gt;" style="text;html=1;strokeColor=none;fillColor=#FF6666;align=center;verticalAlign=middle;whiteSpace=wrap;rounded=0;" parent="1" vertex="1">
          <mxGeometry x="937.25" y="5640" width="60" height="30" as="geometry" />
        </mxCell>
        <mxCell id="8OWY9WzIKqOEVLSM1BfL-63" value="&lt;font style=&quot;font-size: 24px&quot; color=&quot;#ffffff&quot;&gt;会员&lt;/font&gt;" style="text;html=1;strokeColor=none;fillColor=#FF6666;align=center;verticalAlign=middle;whiteSpace=wrap;rounded=0;" parent="1" vertex="1">
          <mxGeometry x="730.5" y="5640" width="60" height="30" as="geometry" />
        </mxCell>
        <mxCell id="8OWY9WzIKqOEVLSM1BfL-64" value="&lt;font style=&quot;font-size: 24px&quot; color=&quot;#ffffff&quot;&gt;会员&lt;/font&gt;" style="text;html=1;strokeColor=none;fillColor=#FF6666;align=center;verticalAlign=middle;whiteSpace=wrap;rounded=0;" parent="1" vertex="1">
          <mxGeometry x="1197.75" y="5400" width="60" height="30" as="geometry" />
        </mxCell>
        <mxCell id="8OWY9WzIKqOEVLSM1BfL-65" value="&lt;font style=&quot;font-size: 22px&quot;&gt;13600000008&lt;br&gt;银牌&lt;br&gt;&amp;nbsp;团队分成 0.9元&lt;/font&gt;" style="rounded=1;whiteSpace=wrap;html=1;fillColor=#FFFFFF;align=center;" parent="1" vertex="1">
          <mxGeometry x="1257.25" y="5120" width="275" height="100" as="geometry" />
        </mxCell>
        <mxCell id="8OWY9WzIKqOEVLSM1BfL-66" value="&lt;span style=&quot;font-size: 24px&quot;&gt;&lt;font color=&quot;#330000&quot;&gt;购买者&lt;/font&gt;&lt;/span&gt;" style="text;html=1;strokeColor=#9673a6;fillColor=#e1d5e7;align=center;verticalAlign=middle;whiteSpace=wrap;rounded=0;" parent="1" vertex="1">
          <mxGeometry x="501" y="5850" width="109" height="30" as="geometry" />
        </mxCell>
        <mxCell id="8OWY9WzIKqOEVLSM1BfL-67" value="&lt;font style=&quot;font-size: 24px&quot; color=&quot;#ffffff&quot;&gt;会员&lt;/font&gt;" style="text;html=1;strokeColor=none;fillColor=#FF6666;align=center;verticalAlign=middle;whiteSpace=wrap;rounded=0;" parent="1" vertex="1">
          <mxGeometry x="632.25" y="5640" width="60" height="30" as="geometry" />
        </mxCell>
        <mxCell id="8OWY9WzIKqOEVLSM1BfL-68" value="&lt;font style=&quot;font-size: 24px&quot; color=&quot;#ffffff&quot;&gt;会员&lt;/font&gt;" style="text;html=1;strokeColor=none;fillColor=#FF6666;align=center;verticalAlign=middle;whiteSpace=wrap;rounded=0;" parent="1" vertex="1">
          <mxGeometry x="533.25" y="5810" width="60" height="30" as="geometry" />
        </mxCell>
        <mxCell id="8OWY9WzIKqOEVLSM1BfL-69" value="&lt;font style=&quot;font-size: 22px&quot;&gt;13600000002&lt;br&gt;金牌&lt;br&gt;&amp;nbsp;团队管理 0.9*0.2 =0.18元&lt;/font&gt;" style="rounded=1;whiteSpace=wrap;html=1;fillColor=#FFFFFF;align=center;" parent="1" vertex="1">
          <mxGeometry x="1257.75" y="5230" width="275" height="100" as="geometry" />
        </mxCell>
        <mxCell id="8OWY9WzIKqOEVLSM1BfL-71" value="&lt;font color=&quot;#ffffff&quot;&gt;&lt;span style=&quot;font-size: 24px&quot;&gt;专卖店&lt;/span&gt;&lt;/font&gt;" style="text;html=1;strokeColor=none;fillColor=#FF6666;align=center;verticalAlign=middle;whiteSpace=wrap;rounded=0;" parent="1" vertex="1">
          <mxGeometry x="608" y="5400" width="109.5" height="30" as="geometry" />
        </mxCell>
        <mxCell id="8OWY9WzIKqOEVLSM1BfL-72" value="" style="edgeStyle=orthogonalEdgeStyle;rounded=0;orthogonalLoop=1;jettySize=auto;html=1;align=center;" parent="1" source="8OWY9WzIKqOEVLSM1BfL-52" target="8OWY9WzIKqOEVLSM1BfL-71" edge="1">
          <mxGeometry relative="1" as="geometry">
            <mxPoint x="662.25" y="5380" as="sourcePoint" />
            <mxPoint x="662.25" y="5550" as="targetPoint" />
          </mxGeometry>
        </mxCell>
        <mxCell id="8OWY9WzIKqOEVLSM1BfL-79" value="&lt;font style=&quot;font-size: 24px&quot; color=&quot;#ffffff&quot;&gt;会员&lt;/font&gt;" style="text;html=1;strokeColor=none;fillColor=#FF6666;align=center;verticalAlign=middle;whiteSpace=wrap;rounded=0;" parent="1" vertex="1">
          <mxGeometry x="405" y="5640" width="60" height="30" as="geometry" />
        </mxCell>
        <mxCell id="8OWY9WzIKqOEVLSM1BfL-80" value="&lt;font style=&quot;font-size: 24px&quot; color=&quot;#ffffff&quot;&gt;会员&lt;/font&gt;" style="text;html=1;strokeColor=none;fillColor=#FF6666;align=center;verticalAlign=middle;whiteSpace=wrap;rounded=0;" parent="1" vertex="1">
          <mxGeometry x="815" y="5640" width="60" height="30" as="geometry" />
        </mxCell>
        <mxCell id="8OWY9WzIKqOEVLSM1BfL-70" value="&lt;font color=&quot;#ffffff&quot;&gt;&lt;span style=&quot;font-size: 24px&quot;&gt;专卖店&lt;/span&gt;&lt;/font&gt;" style="text;html=1;strokeColor=none;fillColor=#FF6666;align=center;verticalAlign=middle;whiteSpace=wrap;rounded=0;" parent="1" vertex="1">
          <mxGeometry x="518.25" y="5640" width="95.5" height="30" as="geometry" />
        </mxCell>
        <mxCell id="8OWY9WzIKqOEVLSM1BfL-82" style="edgeStyle=orthogonalEdgeStyle;rounded=0;orthogonalLoop=1;jettySize=auto;html=1;align=center;" parent="1" source="8OWY9WzIKqOEVLSM1BfL-55" target="8OWY9WzIKqOEVLSM1BfL-70" edge="1">
          <mxGeometry relative="1" as="geometry">
            <mxPoint x="563.3" y="5610" as="sourcePoint" />
            <mxPoint x="533.3" y="5720" as="targetPoint" />
          </mxGeometry>
        </mxCell>
        <mxCell id="8OWY9WzIKqOEVLSM1BfL-83" value="商品设置特定比例" style="text;strokeColor=none;fillColor=none;html=1;fontSize=24;fontStyle=1;verticalAlign=middle;align=center;" parent="1" vertex="1">
          <mxGeometry x="842.25" y="4070" width="236.5" height="40" as="geometry" />
        </mxCell>
        <mxCell id="8OWY9WzIKqOEVLSM1BfL-84" value="星级会员通用比例" style="text;strokeColor=none;fillColor=none;html=1;fontSize=24;fontStyle=1;verticalAlign=middle;align=center;" parent="1" vertex="1">
          <mxGeometry x="842.25" y="-270" width="236.5" height="40" as="geometry" />
        </mxCell>
        <mxCell id="8OWY9WzIKqOEVLSM1BfL-85" value="" style="edgeStyle=orthogonalEdgeStyle;rounded=0;orthogonalLoop=1;jettySize=auto;html=1;align=center;" parent="1" source="8OWY9WzIKqOEVLSM1BfL-88" target="8OWY9WzIKqOEVLSM1BfL-102" edge="1">
          <mxGeometry relative="1" as="geometry" />
        </mxCell>
        <mxCell id="8OWY9WzIKqOEVLSM1BfL-86" value="" style="edgeStyle=orthogonalEdgeStyle;rounded=0;orthogonalLoop=1;jettySize=auto;html=1;align=center;" parent="1" source="8OWY9WzIKqOEVLSM1BfL-88" target="8OWY9WzIKqOEVLSM1BfL-96" edge="1">
          <mxGeometry relative="1" as="geometry" />
        </mxCell>
        <mxCell id="8OWY9WzIKqOEVLSM1BfL-87" value="" style="edgeStyle=orthogonalEdgeStyle;rounded=0;orthogonalLoop=1;jettySize=auto;html=1;align=center;" parent="1" source="8OWY9WzIKqOEVLSM1BfL-88" target="8OWY9WzIKqOEVLSM1BfL-91" edge="1">
          <mxGeometry relative="1" as="geometry" />
        </mxCell>
        <mxCell id="8OWY9WzIKqOEVLSM1BfL-88" value="13600000001" style="shape=umlActor;verticalLabelPosition=bottom;labelBackgroundColor=#ffffff;verticalAlign=top;html=1;outlineConnect=0;align=center;" parent="1" vertex="1">
          <mxGeometry x="945.88" y="6070" width="30" height="60" as="geometry" />
        </mxCell>
        <mxCell id="8OWY9WzIKqOEVLSM1BfL-89" value="" style="edgeStyle=orthogonalEdgeStyle;rounded=0;orthogonalLoop=1;jettySize=auto;html=1;align=center;" parent="1" source="8OWY9WzIKqOEVLSM1BfL-91" target="8OWY9WzIKqOEVLSM1BfL-93" edge="1">
          <mxGeometry relative="1" as="geometry" />
        </mxCell>
        <mxCell id="8OWY9WzIKqOEVLSM1BfL-90" value="" style="edgeStyle=orthogonalEdgeStyle;rounded=0;orthogonalLoop=1;jettySize=auto;html=1;align=center;" parent="1" source="8OWY9WzIKqOEVLSM1BfL-91" target="8OWY9WzIKqOEVLSM1BfL-92" edge="1">
          <mxGeometry relative="1" as="geometry" />
        </mxCell>
        <mxCell id="8OWY9WzIKqOEVLSM1BfL-91" value="13600000011" style="shape=umlActor;verticalLabelPosition=bottom;labelBackgroundColor=#ffffff;verticalAlign=top;html=1;outlineConnect=0;align=center;" parent="1" vertex="1">
          <mxGeometry x="1206.38" y="6240" width="30" height="60" as="geometry" />
        </mxCell>
        <mxCell id="8OWY9WzIKqOEVLSM1BfL-92" value="13600000006" style="shape=umlActor;verticalLabelPosition=bottom;labelBackgroundColor=#ffffff;verticalAlign=top;html=1;outlineConnect=0;align=center;" parent="1" vertex="1">
          <mxGeometry x="1310.88" y="6470" width="30" height="60" as="geometry" />
        </mxCell>
        <mxCell id="8OWY9WzIKqOEVLSM1BfL-93" value="13600000005" style="shape=umlActor;verticalLabelPosition=bottom;labelBackgroundColor=#ffffff;verticalAlign=top;html=1;outlineConnect=0;align=center;" parent="1" vertex="1">
          <mxGeometry x="1108.88" y="6470" width="30" height="60" as="geometry" />
        </mxCell>
        <mxCell id="nK6_aQgQHH3wkcOoI5UE-9" value="" style="edgeStyle=orthogonalEdgeStyle;rounded=0;orthogonalLoop=1;jettySize=auto;html=1;" edge="1" parent="1" source="8OWY9WzIKqOEVLSM1BfL-94" target="nK6_aQgQHH3wkcOoI5UE-8">
          <mxGeometry relative="1" as="geometry" />
        </mxCell>
        <mxCell id="8OWY9WzIKqOEVLSM1BfL-94" value="13600000007" style="shape=umlActor;verticalLabelPosition=bottom;labelBackgroundColor=#ffffff;verticalAlign=top;html=1;outlineConnect=0;align=center;" parent="1" vertex="1">
          <mxGeometry x="945.88" y="6470" width="30" height="60" as="geometry" />
        </mxCell>
        <mxCell id="nK6_aQgQHH3wkcOoI5UE-8" value="13600000015" style="shape=umlActor;verticalLabelPosition=bottom;labelBackgroundColor=#ffffff;verticalAlign=top;html=1;outlineConnect=0;align=center;" vertex="1" parent="1">
          <mxGeometry x="945.88" y="6715" width="30" height="60" as="geometry" />
        </mxCell>
        <mxCell id="8OWY9WzIKqOEVLSM1BfL-95" value="" style="edgeStyle=orthogonalEdgeStyle;rounded=0;orthogonalLoop=1;jettySize=auto;html=1;align=center;" parent="1" source="8OWY9WzIKqOEVLSM1BfL-96" target="8OWY9WzIKqOEVLSM1BfL-94" edge="1">
          <mxGeometry relative="1" as="geometry" />
        </mxCell>
        <mxCell id="nK6_aQgQHH3wkcOoI5UE-4" value="" style="edgeStyle=orthogonalEdgeStyle;rounded=0;orthogonalLoop=1;jettySize=auto;html=1;" edge="1" parent="1" source="8OWY9WzIKqOEVLSM1BfL-96" target="nK6_aQgQHH3wkcOoI5UE-3">
          <mxGeometry relative="1" as="geometry" />
        </mxCell>
        <mxCell id="8OWY9WzIKqOEVLSM1BfL-96" value="13600000003" style="shape=umlActor;verticalLabelPosition=bottom;labelBackgroundColor=#ffffff;verticalAlign=top;html=1;outlineConnect=0;align=center;" parent="1" vertex="1">
          <mxGeometry x="945.88" y="6240" width="30" height="60" as="geometry" />
        </mxCell>
        <mxCell id="nK6_aQgQHH3wkcOoI5UE-3" value="13600000014" style="shape=umlActor;verticalLabelPosition=bottom;labelBackgroundColor=#ffffff;verticalAlign=top;html=1;outlineConnect=0;align=center;" vertex="1" parent="1">
          <mxGeometry x="1030" y="6650" width="30" height="60" as="geometry" />
        </mxCell>
        <mxCell id="8OWY9WzIKqOEVLSM1BfL-97" value="" style="edgeStyle=orthogonalEdgeStyle;rounded=0;orthogonalLoop=1;jettySize=auto;html=1;align=center;" parent="1" source="8OWY9WzIKqOEVLSM1BfL-102" target="8OWY9WzIKqOEVLSM1BfL-109" edge="1">
          <mxGeometry relative="1" as="geometry" />
        </mxCell>
        <mxCell id="8OWY9WzIKqOEVLSM1BfL-98" value="" style="edgeStyle=orthogonalEdgeStyle;rounded=0;orthogonalLoop=1;jettySize=auto;html=1;align=center;" parent="1" source="8OWY9WzIKqOEVLSM1BfL-102" target="8OWY9WzIKqOEVLSM1BfL-107" edge="1">
          <mxGeometry relative="1" as="geometry" />
        </mxCell>
        <mxCell id="8OWY9WzIKqOEVLSM1BfL-99" value="" style="edgeStyle=orthogonalEdgeStyle;rounded=0;orthogonalLoop=1;jettySize=auto;html=1;align=center;" parent="1" source="8OWY9WzIKqOEVLSM1BfL-122" target="8OWY9WzIKqOEVLSM1BfL-105" edge="1">
          <mxGeometry relative="1" as="geometry" />
        </mxCell>
        <mxCell id="8OWY9WzIKqOEVLSM1BfL-100" value="" style="edgeStyle=orthogonalEdgeStyle;rounded=0;orthogonalLoop=1;jettySize=auto;html=1;align=center;entryX=0.5;entryY=0;entryDx=0;entryDy=0;entryPerimeter=0;" parent="1" source="8OWY9WzIKqOEVLSM1BfL-102" target="8OWY9WzIKqOEVLSM1BfL-104" edge="1">
          <mxGeometry relative="1" as="geometry">
            <mxPoint x="394.13" y="6470" as="targetPoint" />
          </mxGeometry>
        </mxCell>
        <mxCell id="8OWY9WzIKqOEVLSM1BfL-101" value="" style="edgeStyle=orthogonalEdgeStyle;rounded=0;orthogonalLoop=1;jettySize=auto;html=1;align=center;" parent="1" source="8OWY9WzIKqOEVLSM1BfL-102" target="8OWY9WzIKqOEVLSM1BfL-103" edge="1">
          <mxGeometry relative="1" as="geometry" />
        </mxCell>
        <mxCell id="8OWY9WzIKqOEVLSM1BfL-102" value="13600000002" style="shape=umlActor;verticalLabelPosition=bottom;labelBackgroundColor=#ffffff;verticalAlign=top;html=1;outlineConnect=0;align=center;" parent="1" vertex="1">
          <mxGeometry x="641.38" y="6240" width="30" height="60" as="geometry" />
        </mxCell>
        <mxCell id="8OWY9WzIKqOEVLSM1BfL-103" value="13600000012" style="shape=umlActor;verticalLabelPosition=bottom;labelBackgroundColor=#ffffff;verticalAlign=top;html=1;outlineConnect=0;align=center;" parent="1" vertex="1">
          <mxGeometry x="414.13" y="6470" width="30" height="60" as="geometry" />
        </mxCell>
        <mxCell id="8OWY9WzIKqOEVLSM1BfL-104" value="13600000013" style="shape=umlActor;verticalLabelPosition=bottom;labelBackgroundColor=#ffffff;verticalAlign=top;html=1;outlineConnect=0;align=center;" parent="1" vertex="1">
          <mxGeometry x="824.13" y="6470" width="30" height="60" as="geometry" />
        </mxCell>
        <mxCell id="8OWY9WzIKqOEVLSM1BfL-105" value="13600000009" style="shape=umlActor;verticalLabelPosition=bottom;labelBackgroundColor=#ffffff;verticalAlign=top;html=1;outlineConnect=0;align=center;" parent="1" vertex="1">
          <mxGeometry x="641.38" y="6470" width="30" height="60" as="geometry" />
        </mxCell>
        <mxCell id="8OWY9WzIKqOEVLSM1BfL-106" style="edgeStyle=orthogonalEdgeStyle;rounded=0;orthogonalLoop=1;jettySize=auto;html=1;align=center;" parent="1" source="8OWY9WzIKqOEVLSM1BfL-126" target="8OWY9WzIKqOEVLSM1BfL-108" edge="1">
          <mxGeometry relative="1" as="geometry" />
        </mxCell>
        <mxCell id="8OWY9WzIKqOEVLSM1BfL-107" value="13600000008" style="shape=umlActor;verticalLabelPosition=bottom;labelBackgroundColor=#ffffff;verticalAlign=top;html=1;outlineConnect=0;align=center;" parent="1" vertex="1">
          <mxGeometry x="542.38" y="6470" width="30" height="60" as="geometry" />
        </mxCell>
        <mxCell id="8OWY9WzIKqOEVLSM1BfL-108" value="13600000004" style="shape=umlActor;verticalLabelPosition=bottom;labelBackgroundColor=#ffffff;verticalAlign=top;html=1;outlineConnect=0;align=center;" parent="1" vertex="1">
          <mxGeometry x="545.13" y="6650" width="30" height="60" as="geometry" />
        </mxCell>
        <mxCell id="8OWY9WzIKqOEVLSM1BfL-109" value="13600000010" style="shape=umlActor;verticalLabelPosition=bottom;labelBackgroundColor=#ffffff;verticalAlign=top;html=1;outlineConnect=0;align=center;" parent="1" vertex="1">
          <mxGeometry x="739.63" y="6470" width="30" height="60" as="geometry" />
        </mxCell>
        <mxCell id="8OWY9WzIKqOEVLSM1BfL-110" value="&lt;font color=&quot;#ffffff&quot;&gt;&lt;span style=&quot;font-size: 24px&quot;&gt;专卖店&lt;/span&gt;&lt;/font&gt;" style="text;html=1;strokeColor=none;fillColor=#FF6666;align=center;verticalAlign=middle;whiteSpace=wrap;rounded=0;" parent="1" vertex="1">
          <mxGeometry x="906.13" y="6150" width="109.5" height="30" as="geometry" />
        </mxCell>
        <mxCell id="8OWY9WzIKqOEVLSM1BfL-111" value="&lt;font style=&quot;font-size: 24px&quot; color=&quot;#ffffff&quot;&gt;会员&lt;/font&gt;" style="text;html=1;strokeColor=none;fillColor=#FF6666;align=center;verticalAlign=middle;whiteSpace=wrap;rounded=0;" parent="1" vertex="1">
          <mxGeometry x="930.88" y="6320" width="60" height="30" as="geometry" />
        </mxCell>
        <mxCell id="8OWY9WzIKqOEVLSM1BfL-112" value="&lt;font style=&quot;font-size: 24px&quot; color=&quot;#ffffff&quot;&gt;会员&lt;/font&gt;" style="text;html=1;strokeColor=none;fillColor=#FF6666;align=center;verticalAlign=middle;whiteSpace=wrap;rounded=0;" parent="1" vertex="1">
          <mxGeometry x="1094.38" y="6560" width="60" height="30" as="geometry" />
        </mxCell>
        <mxCell id="8OWY9WzIKqOEVLSM1BfL-113" value="&lt;font style=&quot;font-size: 24px&quot; color=&quot;#ffffff&quot;&gt;会员&lt;/font&gt;" style="text;html=1;strokeColor=none;fillColor=#FF6666;align=center;verticalAlign=middle;whiteSpace=wrap;rounded=0;" parent="1" vertex="1">
          <mxGeometry x="1295.88" y="6560" width="60" height="30" as="geometry" />
        </mxCell>
        <mxCell id="8OWY9WzIKqOEVLSM1BfL-114" value="&lt;font style=&quot;font-size: 24px&quot; color=&quot;#ffffff&quot;&gt;会员&lt;/font&gt;" style="text;html=1;strokeColor=none;fillColor=#FF6666;align=center;verticalAlign=middle;whiteSpace=wrap;rounded=0;" parent="1" vertex="1">
          <mxGeometry x="931.38" y="6560" width="60" height="30" as="geometry" />
        </mxCell>
        <mxCell id="8OWY9WzIKqOEVLSM1BfL-115" value="&lt;font style=&quot;font-size: 24px&quot; color=&quot;#ffffff&quot;&gt;会员&lt;/font&gt;" style="text;html=1;strokeColor=none;fillColor=#FF6666;align=center;verticalAlign=middle;whiteSpace=wrap;rounded=0;" parent="1" vertex="1">
          <mxGeometry x="724.63" y="6560" width="60" height="30" as="geometry" />
        </mxCell>
        <mxCell id="8OWY9WzIKqOEVLSM1BfL-116" value="&lt;font style=&quot;font-size: 24px&quot; color=&quot;#ffffff&quot;&gt;会员&lt;/font&gt;" style="text;html=1;strokeColor=none;fillColor=#FF6666;align=center;verticalAlign=middle;whiteSpace=wrap;rounded=0;" parent="1" vertex="1">
          <mxGeometry x="1191.88" y="6320" width="60" height="30" as="geometry" />
        </mxCell>
        <mxCell id="8OWY9WzIKqOEVLSM1BfL-118" value="&lt;span style=&quot;font-size: 24px&quot;&gt;&lt;font color=&quot;#330000&quot;&gt;购买者&lt;/font&gt;&lt;/span&gt;" style="text;html=1;strokeColor=#9673a6;fillColor=#e1d5e7;align=center;verticalAlign=middle;whiteSpace=wrap;rounded=0;" parent="1" vertex="1">
          <mxGeometry x="495.13" y="6770" width="109" height="30" as="geometry" />
        </mxCell>
        <mxCell id="8OWY9WzIKqOEVLSM1BfL-119" value="&lt;font style=&quot;font-size: 24px&quot; color=&quot;#ffffff&quot;&gt;会员&lt;/font&gt;" style="text;html=1;strokeColor=none;fillColor=#FF6666;align=center;verticalAlign=middle;whiteSpace=wrap;rounded=0;" parent="1" vertex="1">
          <mxGeometry x="626.38" y="6560" width="60" height="30" as="geometry" />
        </mxCell>
        <mxCell id="8OWY9WzIKqOEVLSM1BfL-120" value="&lt;font style=&quot;font-size: 24px&quot; color=&quot;#ffffff&quot;&gt;会员&lt;/font&gt;" style="text;html=1;strokeColor=none;fillColor=#FF6666;align=center;verticalAlign=middle;whiteSpace=wrap;rounded=0;" parent="1" vertex="1">
          <mxGeometry x="527.38" y="6730" width="60" height="30" as="geometry" />
        </mxCell>
        <mxCell id="8OWY9WzIKqOEVLSM1BfL-121" value="&lt;span style=&quot;font-size: 22px&quot;&gt;无任何分成&lt;/span&gt;" style="rounded=1;whiteSpace=wrap;html=1;fillColor=#FFFFFF;align=center;" parent="1" vertex="1">
          <mxGeometry x="1246.88" y="6100" width="275" height="100" as="geometry" />
        </mxCell>
        <mxCell id="8OWY9WzIKqOEVLSM1BfL-122" value="&lt;font color=&quot;#ffffff&quot;&gt;&lt;span style=&quot;font-size: 24px&quot;&gt;专卖店&lt;/span&gt;&lt;/font&gt;" style="text;html=1;strokeColor=none;fillColor=#FF6666;align=center;verticalAlign=middle;whiteSpace=wrap;rounded=0;" parent="1" vertex="1">
          <mxGeometry x="602.13" y="6320" width="109.5" height="30" as="geometry" />
        </mxCell>
        <mxCell id="8OWY9WzIKqOEVLSM1BfL-123" value="" style="edgeStyle=orthogonalEdgeStyle;rounded=0;orthogonalLoop=1;jettySize=auto;html=1;align=center;" parent="1" source="8OWY9WzIKqOEVLSM1BfL-102" target="8OWY9WzIKqOEVLSM1BfL-122" edge="1">
          <mxGeometry relative="1" as="geometry">
            <mxPoint x="656.38" y="6300" as="sourcePoint" />
            <mxPoint x="656.38" y="6470" as="targetPoint" />
          </mxGeometry>
        </mxCell>
        <mxCell id="8OWY9WzIKqOEVLSM1BfL-124" value="&lt;font style=&quot;font-size: 24px&quot; color=&quot;#ffffff&quot;&gt;会员&lt;/font&gt;" style="text;html=1;strokeColor=none;fillColor=#FF6666;align=center;verticalAlign=middle;whiteSpace=wrap;rounded=0;" parent="1" vertex="1">
          <mxGeometry x="399.13" y="6560" width="60" height="30" as="geometry" />
        </mxCell>
        <mxCell id="8OWY9WzIKqOEVLSM1BfL-125" value="&lt;font style=&quot;font-size: 24px&quot; color=&quot;#ffffff&quot;&gt;会员&lt;/font&gt;" style="text;html=1;strokeColor=none;fillColor=#FF6666;align=center;verticalAlign=middle;whiteSpace=wrap;rounded=0;" parent="1" vertex="1">
          <mxGeometry x="809.13" y="6560" width="60" height="30" as="geometry" />
        </mxCell>
        <mxCell id="8OWY9WzIKqOEVLSM1BfL-126" value="&lt;font color=&quot;#ffffff&quot;&gt;&lt;span style=&quot;font-size: 24px&quot;&gt;专卖店&lt;/span&gt;&lt;/font&gt;" style="text;html=1;strokeColor=none;fillColor=#FF6666;align=center;verticalAlign=middle;whiteSpace=wrap;rounded=0;" parent="1" vertex="1">
          <mxGeometry x="512.38" y="6560" width="95.5" height="30" as="geometry" />
        </mxCell>
        <mxCell id="8OWY9WzIKqOEVLSM1BfL-127" style="edgeStyle=orthogonalEdgeStyle;rounded=0;orthogonalLoop=1;jettySize=auto;html=1;align=center;" parent="1" source="8OWY9WzIKqOEVLSM1BfL-107" target="8OWY9WzIKqOEVLSM1BfL-126" edge="1">
          <mxGeometry relative="1" as="geometry">
            <mxPoint x="557.43" y="6530" as="sourcePoint" />
            <mxPoint x="527.43" y="6640" as="targetPoint" />
          </mxGeometry>
        </mxCell>
        <mxCell id="8OWY9WzIKqOEVLSM1BfL-128" value="商品无设置提成" style="text;strokeColor=none;fillColor=none;html=1;fontSize=24;fontStyle=1;verticalAlign=middle;align=center;" parent="1" vertex="1">
          <mxGeometry x="830" y="6000" width="260" height="40" as="geometry" />
        </mxCell>
        <mxCell id="nK6_aQgQHH3wkcOoI5UE-5" value="&lt;font color=&quot;#ffffff&quot;&gt;&lt;span style=&quot;font-size: 24px&quot;&gt;会员&lt;/span&gt;&lt;/font&gt;" style="text;html=1;strokeColor=none;fillColor=#FF6666;align=center;verticalAlign=middle;whiteSpace=wrap;rounded=0;" vertex="1" parent="1">
          <mxGeometry x="1021.5" y="6740" width="60" height="30" as="geometry" />
        </mxCell>
        <mxCell id="nK6_aQgQHH3wkcOoI5UE-10" value="&lt;font color=&quot;#ffffff&quot;&gt;&lt;span style=&quot;font-size: 24px&quot;&gt;游客&lt;/span&gt;&lt;/font&gt;" style="text;html=1;strokeColor=none;fillColor=#FF6666;align=center;verticalAlign=middle;whiteSpace=wrap;rounded=0;" vertex="1" parent="1">
          <mxGeometry x="931.38" y="6800" width="60" height="30" as="geometry" />
        </mxCell>
      </root>
    </mxGraphModel>
  </diagram>
</mxfile>
